<?xml version="1.0" encoding="utf-8"?>
<!-- Generator: Adobe Illustrator 17.0.0, SVG Export Plug-In . SVG Version: 6.00 Build 0)  -->
<!DOCTYPE svg PUBLIC "-//W3C//DTD SVG 1.1//EN" "http://www.w3.org/Graphics/SVG/1.1/DTD/svg11.dtd">
<svg version="1.1" id="Layer_1" xmlns="http://www.w3.org/2000/svg" xmlns:xlink="http://www.w3.org/1999/xlink" x="0px" y="0px"
	 width="1000px" height="750px" viewBox="0 0 1000 750" enable-background="new 0 0 1000 750" xml:space="preserve">
<g>
	<path d="M499.996,228.392c-98.791,0-179.166,80.367-179.166,179.157c0,98.798,80.374,179.166,179.166,179.166
		s179.166-80.367,179.166-179.166C679.162,308.759,598.779,228.392,499.996,228.392z M499.996,523.483
		c-63.926,0-115.934-52.008-115.934-115.934c0-63.911,52.008-115.926,115.934-115.926S615.93,343.631,615.93,407.549
		C615.931,471.475,563.924,523.483,499.996,523.483z"/>
	<path d="M532.11,319.382c-15.99-7.011-34.643,0.309-41.638,16.306s0.3,34.643,16.306,41.638c0.237,0.11,24.162,11.414,21.68,29.774
		c-2.34,17.294,9.793,33.212,27.102,35.552c1.439,0.19,2.853,0.285,4.276,0.285c15.578,0,29.15-11.516,31.292-27.387
		C598.203,363.098,557.355,330.423,532.11,319.382z"/>
	<path d="M504.581,438.461c-8.292,0-16.44,3.328-22.368,9.256c-5.849,5.841-9.247,13.99-9.247,22.361
		c0,8.299,3.398,16.44,9.247,22.273c5.849,5.928,14.069,9.342,22.368,9.342c8.307,0,16.44-3.415,22.368-9.342
		c5.849-5.834,9.247-13.99,9.247-22.273c0-8.307-3.398-16.519-9.247-22.361C521.045,441.789,512.888,438.461,504.581,438.461z"/>
	<path d="M827.226,219.642H707.727l-33.33-121.396C670.611,84.517,658.146,75,643.904,75H356.09
		c-14.242,0-26.723,9.516-30.486,23.246l-33.323,121.396H172.775c-17.46,0-31.615,14.156-31.615,31.615v392.128
		c0,17.46,14.156,31.615,31.615,31.615h654.45c17.46,0,31.615-14.156,31.615-31.615V251.257
		C858.842,233.798,844.686,219.642,827.226,219.642z M204.39,611.77V282.873h111.998c14.242,0,26.723-9.516,30.486-23.246
		l33.323-121.396h239.591l33.33,121.387c3.786,13.729,16.258,23.246,30.486,23.246h111.998l0.009,328.906H204.39z"/>
</g>
</svg>
