<?xml version="1.0" encoding="utf-8"?>
<!-- Generator: Adobe Illustrator 17.0.0, SVG Export Plug-In . SVG Version: 6.00 Build 0)  -->
<!DOCTYPE svg PUBLIC "-//W3C//DTD SVG 1.1//EN" "http://www.w3.org/Graphics/SVG/1.1/DTD/svg11.dtd">
<svg version="1.1" id="Layer_1" xmlns="http://www.w3.org/2000/svg" xmlns:xlink="http://www.w3.org/1999/xlink" x="0px" y="0px"
	 width="600px" height="600px" viewBox="0 0 600 600" enable-background="new 0 0 600 600" xml:space="preserve">
<g>
	<path d="M300.397,177.387c-82.592,0-149.787,67.189-149.787,149.78c0,82.598,67.195,149.787,149.787,149.787
		s149.787-67.189,149.787-149.787C450.184,244.576,382.982,177.387,300.397,177.387z M300.397,424.091
		c-53.444,0-96.924-43.48-96.924-96.924c0-53.431,43.48-96.917,96.924-96.917s96.924,43.48,96.924,96.917
		C397.321,380.611,353.842,424.091,300.397,424.091z"/>
	<path d="M327.245,253.457c-13.368-5.861-28.962,0.258-34.81,13.632c-5.848,13.374,0.251,28.962,13.632,34.81
		c0.198,0.092,20.2,9.542,18.125,24.892c-1.956,14.458,8.187,27.766,22.658,29.722c1.203,0.159,2.385,0.238,3.575,0.238
		c13.024,0,24.37-9.628,26.161-22.896C382.5,290.005,348.35,262.688,327.245,253.457z"/>
	<path d="M304.23,353.01c-6.932,0-13.744,2.782-18.7,7.738c-4.89,4.883-7.731,11.696-7.731,18.694
		c0,6.938,2.841,13.744,7.731,18.621c4.89,4.956,11.762,7.81,18.7,7.81c6.945,0,13.744-2.855,18.7-7.81
		c4.89-4.877,7.731-11.696,7.731-18.621c0-6.945-2.841-13.81-7.731-18.694C317.994,355.792,311.175,353.01,304.23,353.01z"/>
	<path d="M573.969,170.072h-99.904L446.2,68.582c-3.165-11.478-13.586-19.434-25.493-19.434H180.088
		c-11.907,0-22.341,7.956-25.487,19.434l-27.859,101.49H26.832c-14.597,0-26.431,11.835-26.431,26.431v327.829
		c0,14.597,11.835,26.431,26.431,26.431h547.137c14.597,0,26.431-11.835,26.431-26.431V196.503
		C600.401,181.907,588.566,170.072,573.969,170.072z M547.538,497.901H53.263V222.935h93.633c11.907,0,22.341-7.956,25.487-19.434
		l27.859-101.49h200.304l27.865,101.483c3.165,11.478,13.592,19.434,25.487,19.434h93.633L547.538,497.901L547.538,497.901z"/>
</g>
</svg>
