<?xml version="1.0" encoding="utf-8"?>
<!-- Generator: Adobe Illustrator 17.0.0, SVG Export Plug-In . SVG Version: 6.00 Build 0)  -->
<!DOCTYPE svg PUBLIC "-//W3C//DTD SVG 1.1//EN" "http://www.w3.org/Graphics/SVG/1.1/DTD/svg11.dtd">
<svg version="1.1" id="Layer_1" xmlns="http://www.w3.org/2000/svg" xmlns:xlink="http://www.w3.org/1999/xlink" x="0px" y="0px"
	 width="600px" height="600px" viewBox="0 0 600 600" enable-background="new 0 0 600 600" xml:space="preserve">
<g>
	<polygon fill="#231F20" points="125,75 250,200 200,250 75,125 0,200 0,0 200,0 	"/>
	<polygon fill="#231F20" points="525,125 400,250 350,200 475,75 400,0 600,0 600,200 	"/>
	<polygon fill="#231F20" points="475,525 350,400 400,350 525,475 600,400 600,600 400,600 	"/>
	<polygon fill="#231F20" points="75,475 200,350 250,400 125,525 200,600 0,600 0,400 	"/>
</g>
</svg>
