<?xml version="1.0" encoding="utf-8"?>
<!-- Generator: Adobe Illustrator 17.0.0, SVG Export Plug-In . SVG Version: 6.00 Build 0)  -->
<!DOCTYPE svg PUBLIC "-//W3C//DTD SVG 1.1//EN" "http://www.w3.org/Graphics/SVG/1.1/DTD/svg11.dtd">
<svg version="1.1" id="Layer_1" xmlns="http://www.w3.org/2000/svg" xmlns:xlink="http://www.w3.org/1999/xlink" x="0px" y="0px"
	 width="600px" height="600px" viewBox="0 0 600 600" enable-background="new 0 0 600 600" xml:space="preserve">
<g>
	<path d="M41.215,256.837c-3.893,0.801-7.669,2.064-11.177,3.943c-4.539,2.431-9.335,5.75-12.712,9.696
		c-0.733,0.857-2.011,2.215-1.912,3.433c0.029,0.353,0.814,1.607,1.902,3.201c-0.204,0.471-1.849,3.644-9.104,3.644
		c-6.965,0-8.211,4.429-8.211,4.429v15.763c0,0,6.169-1.998,10.73-1.998c10.698,0,15.943-8.735,15.943-8.735l-2.736-3.861
		c1.259-1.187,11.009-15.533,34.125-15.533c7.693,0,11.823-2.401,11.823-2.838V252.19c0,0-6.339,2.917-13.977,2.917
		C51.085,255.107,45.933,255.867,41.215,256.837z"/>
	<path d="M28.835,293.057l2.52,3.556c0,0-5.548,11.072-19.531,11.072c-7.693,0-11.824,2.72-11.824,2.72v15.763
		c0,0,3.928-2.458,11.824-2.458c21.257,0,27.731-15.55,27.731-15.55l-2.445-3.443c0.063-0.079,7.032-8.822,20.952-8.822
		c7.693,0,11.824-2.72,11.824-2.72v-15.763c0,0-3.928,2.458-11.824,2.458C36.804,279.869,28.835,293.057,28.835,293.057z"/>
	<path d="M41.716,311.231l2.739,3.865c0,0-9.513,17.663-32.632,17.663C4.13,332.759,0,335.16,0,335.598v15.791
		c0,0,6.339-2.917,13.977-2.917c8.048,0,16.974-1.542,24.014-5.572c4.504-2.579,8.854-6.089,12.171-10.102
		c0.902-1.091,1.687-2.253,2.415-3.465c0.898-1.495-0.567-3.787-1.467-4.967c0.425-0.213,3.357-1.541,10.564-1.541
		c6.965,0,8.211-4.429,8.211-4.429v-15.763c0,0-6.169,1.998-10.73,1.998C48.457,304.631,41.716,311.231,41.716,311.231z"/>
	<polygon points="124,293.958 93.954,253.249 82.27,253.249 82.27,318.161 95.531,318.161 95.531,277.544 125.298,318.161 
		137.26,318.161 137.26,253.249 124,253.249 	"/>
	<path d="M171.664,268.271c-7.233,0-14.745,1.947-20.957,5.007l3.524,9.459c4.266-2.226,9.18-4.266,14.744-4.266
		c7.14,0,9.644,3.709,9.644,9.83v0.742c-3.06-0.649-6.12-1.02-8.81-1.02c-10.108,0-21.236,3.802-21.236,15.764
		c0,10.015,8.439,15.487,17.526,15.487c5.193,0,10.108-1.391,13.261-5.286l1.02,4.173h11.406v-29.303
		C191.787,276.153,185.203,268.271,171.664,268.271z M178.619,305.92c-2.782,2.504-5.935,4.173-9.737,4.173
		c-3.895,0-7.419-2.225-7.419-6.491c0-5.749,5.657-7.511,10.479-7.511c2.04,0,4.173,0.279,6.677,0.835V305.92z"/>
	<path d="M222.296,308.053c-2.782,0-3.895-1.762-4.266-4.637c-0.186-1.391-0.186-2.689-0.186-4.173v-18.917h12.426v-10.942h-12.426
		v-10.757h-11.128l-2.04,10.757h-5.842v10.942h5.842v20.308c0,2.875,0.186,5.749,0.927,8.161
		c1.762,6.306,6.862,10.479,14.466,10.479c3.802,0,8.439-1.02,11.592-2.875l-4.081-9.737
		C225.913,307.497,224.336,308.053,222.296,308.053z"/>
	<rect x="239.174" y="269.384" width="13.168" height="48.777"/>
	<rect x="239.174" y="251.394" width="13.168" height="11.22"/>
	<path d="M287.395,268.271c-14.93,0-25.594,11.128-25.594,25.501c0,14.373,10.664,25.501,25.594,25.501
		c14.837,0,25.501-11.128,25.501-25.501S302.232,268.271,287.395,268.271z M287.395,307.96c-7.233,0-12.148-6.213-12.148-14.188
		c0-7.975,4.915-14.188,12.148-14.188s12.055,6.213,12.055,14.188C299.45,301.747,294.628,307.96,287.395,307.96z"/>
	<path d="M349.897,268.271c-5.379,0-11.221,2.318-15.115,7.789l-1.02-6.677h-11.406v48.777h13.168v-32.364
		c2.411-3.987,6.677-6.213,10.572-6.213c2.874,0,5.286,1.02,6.491,3.431c1.391,2.782,1.484,6.862,1.484,10.479v24.667h13.168
		v-25.316c0-6.955-0.556-13.261-4.358-18.176C359.819,270.775,355.182,268.271,349.897,268.271z"/>
	<path d="M405.908,278.101c-5.008-1.762-11.128-3.153-11.128-8.16c0-4.265,3.988-6.491,8.439-6.491c5.008,0,9.83,2.782,13.446,5.842
		l7.604-9.459c-6.584-5.007-13.168-7.697-21.514-7.697c-10.757,0-21.236,5.842-21.236,18.175c0,12.426,9.458,16.135,17.897,19.288
		c6.584,2.411,12.519,4.544,12.519,10.108c0,5.749-5.1,8.253-10.293,8.253c-6.77,0-10.85-3.06-16.135-8.16l-8.81,8.624
		c7.048,7.048,14.837,10.85,24.852,10.85c11.314,0,24.574-6.028,24.574-20.123C426.124,285.519,415.088,281.253,405.908,278.101z"/>
	<polygon points="478.517,299.522 478.239,299.522 470.264,269.384 458.673,269.384 450.234,299.614 450.049,299.614 
		442.816,269.384 428.813,269.384 442.166,318.161 456.355,318.161 464.144,290.248 464.329,290.248 472.026,318.161 
		485.936,318.161 499.938,269.384 486.214,269.384 	"/>
	<path d="M527.76,268.271c-14.002,0-24.759,11.313-24.759,26.058c0,14.652,9.922,24.945,24.667,24.945
		c10.479,0,16.692-3.895,22.255-11.963l-8.624-5.842c-3.153,4.637-6.399,7.233-12.705,7.233c-6.955,0-11.313-5.008-12.24-11.684
		h34.311c0.371-1.948,0.649-4.266,0.649-6.213C551.314,277.822,541.299,268.271,527.76,268.271z M517.003,288.023
		c1.391-5.471,4.822-9.459,11.128-9.459c5.378,0,9.459,3.617,9.737,9.459H517.003z"/>
	<rect x="560.867" y="248.612" width="13.168" height="69.549"/>
	<rect x="586.832" y="248.612" width="13.168" height="69.549"/>
</g>
</svg>
