<?xml version="1.0" encoding="utf-8"?>
<!-- Generator: Adobe Illustrator 17.0.0, SVG Export Plug-In . SVG Version: 6.00 Build 0)  -->
<!DOCTYPE svg PUBLIC "-//W3C//DTD SVG 1.1//EN" "http://www.w3.org/Graphics/SVG/1.1/DTD/svg11.dtd">
<svg version="1.1" id="Layer_1" xmlns="http://www.w3.org/2000/svg" xmlns:xlink="http://www.w3.org/1999/xlink" x="0px" y="0px"
	 width="600px" height="600px" viewBox="0 0 600 600" enable-background="new 0 0 600 600" xml:space="preserve">
<g>
	<path d="M426.81,17.643c-29.173,0-60.336,4.597-88.87,10.463c-23.547,4.841-46.384,12.486-67.607,23.848
		c-27.456,14.704-56.464,34.776-76.892,58.648c-4.434,5.182-12.164,13.397-11.562,20.767c0.175,2.135,4.924,9.717,11.503,19.359
		c-1.235,2.849-11.182,22.039-55.066,22.039c-42.128,0-49.666,26.789-49.666,26.789v95.344c0,0,37.315-12.082,64.899-12.082
		c64.708,0,96.436-52.835,96.436-52.835l-16.551-23.353c7.611-7.18,66.586-93.951,206.403-93.951
		c46.533,0,71.514-14.52,71.514-17.168V0C511.35,0,473.008,17.643,426.81,17.643z"/>
	<path d="M263.059,247.184l15.242,21.507c0,0-33.56,66.966-118.137,66.966c-46.533,0-71.514,16.449-71.514,16.449v95.344
		c0,0,23.76-14.865,71.514-14.865c128.576,0,167.73-94.056,167.73-94.056l-14.787-20.822c0.382-0.481,42.535-53.361,126.729-53.361
		c46.534,0,71.514-16.451,71.514-16.451V152.55c0,0-23.76,14.865-71.514,14.865C311.26,167.415,263.059,247.184,263.059,247.184z"/>
	<path d="M340.968,357.11l16.569,23.377c-0.001,0.002-57.538,106.837-197.373,106.837c-46.533,0-71.513,14.519-71.513,17.166V600
		c0,0,38.342-17.641,84.54-17.641c48.679,0,102.667-9.324,145.248-33.706c27.241-15.597,53.552-36.83,73.617-61.099
		c5.457-6.6,10.2-13.626,14.604-20.96c5.429-9.041-3.428-22.908-8.873-30.04c2.57-1.291,20.304-9.32,63.898-9.32
		c42.128,0,49.666-26.789,49.666-26.789v-95.344c0,0-37.315,12.084-64.899,12.084C381.743,317.185,340.968,357.11,340.968,357.11z"
		/>
</g>
</svg>
