<?xml version="1.0" encoding="utf-8"?>
<!-- Generator: Adobe Illustrator 17.0.0, SVG Export Plug-In . SVG Version: 6.00 Build 0)  -->
<!DOCTYPE svg PUBLIC "-//W3C//DTD SVG 1.1//EN" "http://www.w3.org/Graphics/SVG/1.1/DTD/svg11.dtd">
<svg version="1.1" id="Layer_1" xmlns="http://www.w3.org/2000/svg" xmlns:xlink="http://www.w3.org/1999/xlink" x="0px" y="0px"
	 width="600px" height="600px" viewBox="0 0 600 600" enable-background="new 0 0 600 600" xml:space="preserve">
<g>
	<polygon points="48.36,311.607 13.541,264.428 0,264.428 0,339.656 15.368,339.656 15.368,292.585 49.865,339.656 63.728,339.656 
		63.728,264.428 48.36,264.428 	"/>
	<path d="M103.599,281.838c-8.382,0-17.087,2.257-24.288,5.803l4.084,10.962c4.944-2.579,10.639-4.944,17.087-4.944
		c8.275,0,11.176,4.299,11.176,11.392v0.86c-3.546-0.752-7.093-1.182-10.21-1.182c-11.714,0-24.61,4.406-24.61,18.269
		c0,11.607,9.78,17.947,20.311,17.947c6.018,0,11.714-1.612,15.368-6.126l1.182,4.836h13.218v-33.96
		C126.919,290.973,119.289,281.838,103.599,281.838z M111.659,325.47c-3.224,2.902-6.878,4.836-11.284,4.836
		c-4.514,0-8.598-2.579-8.598-7.523c0-6.663,6.556-8.705,12.144-8.705c2.364,0,4.836,0.323,7.738,0.967V325.47z"/>
	<path d="M162.277,327.942c-3.224,0-4.514-2.042-4.944-5.374c-0.215-1.612-0.215-3.116-0.215-4.836v-21.923h14.401v-12.681h-14.401
		v-12.466h-12.896l-2.364,12.466h-6.77v12.681h6.77v23.535c0,3.332,0.215,6.663,1.074,9.457c2.042,7.308,7.953,12.144,16.765,12.144
		c4.406,0,9.78-1.182,13.434-3.332l-4.729-11.284C166.468,327.297,164.641,327.942,162.277,327.942z"/>
	<rect x="181.836" y="283.128" width="15.26" height="56.528"/>
	<rect x="181.836" y="262.279" width="15.26" height="13.003"/>
	<path d="M237.72,281.838c-17.302,0-29.661,12.896-29.661,29.554c0,16.657,12.359,29.554,29.661,29.554
		c17.195,0,29.554-12.896,29.554-29.554C267.274,294.734,254.915,281.838,237.72,281.838z M237.72,327.834
		c-8.382,0-14.078-7.2-14.078-16.442c0-9.242,5.696-16.443,14.078-16.443c8.382,0,13.971,7.2,13.971,16.443
		C251.691,320.634,246.103,327.834,237.72,327.834z"/>
	<path d="M310.154,281.838c-6.233,0-13.004,2.687-17.517,9.027l-1.182-7.738h-13.218v56.528h15.26v-37.506
		c2.794-4.621,7.738-7.2,12.251-7.2c3.331,0,6.126,1.182,7.522,3.976c1.612,3.224,1.72,7.953,1.72,12.144v28.586h15.26v-29.339
		c0-8.06-0.645-15.368-5.051-21.064C321.653,284.74,316.28,281.838,310.154,281.838z"/>
	<path d="M375.066,293.229c-5.803-2.042-12.897-3.654-12.897-9.457c0-4.943,4.621-7.523,9.78-7.523
		c5.803,0,11.392,3.224,15.583,6.771l8.812-10.962c-7.63-5.803-15.26-8.92-24.932-8.92c-12.467,0-24.611,6.771-24.611,21.064
		c0,14.401,10.962,18.699,20.741,22.353c7.63,2.794,14.508,5.266,14.508,11.714c0,6.663-5.91,9.564-11.929,9.564
		c-7.845,0-12.574-3.546-18.699-9.457l-10.21,9.995c8.168,8.167,17.195,12.574,28.801,12.574c13.111,0,28.479-6.986,28.479-23.321
		C398.494,301.827,385.705,296.883,375.066,293.229z"/>
	<polygon points="459.213,318.055 458.891,318.055 449.648,283.128 436.215,283.128 426.435,318.162 426.221,318.162 
		417.838,283.128 401.611,283.128 417.085,339.656 433.528,339.656 442.555,307.308 442.771,307.308 451.69,339.656 467.81,339.656 
		484.038,283.128 468.133,283.128 	"/>
	<path d="M516.28,281.838c-16.228,0-28.694,13.111-28.694,30.198c0,16.98,11.499,28.909,28.587,28.909
		c12.144,0,19.344-4.514,25.792-13.863l-9.994-6.77c-3.654,5.373-7.415,8.382-14.723,8.382c-8.06,0-13.111-5.803-14.186-13.541
		h39.763c0.43-2.257,0.752-4.943,0.752-7.2C543.578,292.907,531.971,281.838,516.28,281.838z M503.814,304.729
		c1.612-6.341,5.588-10.962,12.896-10.962c6.233,0,10.962,4.191,11.284,10.962H503.814z"/>
	<rect x="554.648" y="259.055" width="15.26" height="80.601"/>
	<rect x="584.74" y="259.055" width="15.26" height="80.601"/>
</g>
</svg>
