<?xml version="1.0" encoding="utf-8"?>
<!-- Generator: Adobe Illustrator 17.0.0, SVG Export Plug-In . SVG Version: 6.00 Build 0)  -->
<!DOCTYPE svg PUBLIC "-//W3C//DTD SVG 1.1//EN" "http://www.w3.org/Graphics/SVG/1.1/DTD/svg11.dtd">
<svg version="1.1" id="Layer_1" xmlns="http://www.w3.org/2000/svg" xmlns:xlink="http://www.w3.org/1999/xlink" x="0px" y="0px"
	 width="600px" height="600px" viewBox="0 0 600 600" enable-background="new 0 0 600 600" xml:space="preserve">
<g>
	<path d="M241.677,180.558L181.96,61.119c-31.113,0-57.858,5.452-80.252,16.328c-22.394,10.89-40.122,24.89-53.191,41.99
		c-13.061,17.118-23.324,39.512-30.789,67.187c-7.465,27.688-12.289,54.748-14.46,81.182C1.079,294.252,0,325.822,0,362.518
		c0,18.662,0.465,47.749,1.399,87.247c0.934,39.512,1.399,69.213,1.399,89.116h238.879V299.998H122.233
		c0-42.297,9.175-72.783,27.534-91.445C168.109,189.887,198.749,180.558,241.677,180.558z"/>
	<path d="M508.09,208.553c18.342-18.666,48.981-27.995,91.91-27.995L540.282,61.119c-31.113,0-57.858,5.452-80.252,16.328
		c-22.394,10.89-40.122,24.89-53.191,41.99c-13.061,17.118-23.324,39.512-30.789,67.187c-7.465,27.688-12.298,54.748-14.464,81.182
		c-2.184,26.447-3.263,58.016-3.263,94.712c0,18.662,0.465,47.749,1.395,87.247c0.93,39.512,1.404,69.213,1.404,89.116H600V299.998
		H480.556C480.556,257.701,489.731,227.215,508.09,208.553z"/>
</g>
</svg>
