<?xml version="1.0" encoding="utf-8"?>
<!-- Generator: Adobe Illustrator 17.0.0, SVG Export Plug-In . SVG Version: 6.00 Build 0)  -->
<!DOCTYPE svg PUBLIC "-//W3C//DTD SVG 1.1//EN" "http://www.w3.org/Graphics/SVG/1.1/DTD/svg11.dtd">
<svg version="1.1" id="Layer_1" xmlns="http://www.w3.org/2000/svg" xmlns:xlink="http://www.w3.org/1999/xlink" x="0px" y="0px"
	 width="600px" height="600px" viewBox="0 0 600 600" enable-background="new 0 0 600 600" xml:space="preserve">
<g>
	<path d="M413.41,99.355H186.594c-23.002,0-41.716,19.373-41.716,43.187v315.192c0,23.811,18.714,43.187,41.716,43.187H413.41
		c22.999,0,41.713-19.376,41.713-43.187V142.542C455.122,118.728,436.409,99.355,413.41,99.355z M401.929,447.728H198.071v-295.18
		h203.859V447.728z"/>
	<path d="M116.48,428.021l-2.958,0.647L66.783,214.89l49.697-10.866v-55.316c0-3.273,0.306-6.466,0.745-9.617l-82.901,18.128
		c-11.825,2.584-22.126,10.157-28.259,20.774c-5.673,9.817-7.442,21.411-4.986,32.63l54.516,249.34
		c4.511,20.661,22.736,35.654,43.332,35.654c3.074,0,6.156-0.332,9.164-0.989l14.181-3.101c-3.694-8.451-5.793-17.785-5.793-27.624
		V428.021z"/>
	<path d="M568.139,164.641l-92.566-25.821c0.465,3.237,0.785,6.521,0.785,9.888v56.021l56.1,15.649l-56.1,201.107v42.418
		c0,11.395-2.788,22.125-7.655,31.568l6.624,1.848c3.758,1.05,7.639,1.583,11.536,1.583c19.766,0,37.388-13.648,42.853-33.202
		l68.582-245.856C604.967,195.916,591.446,171.152,568.139,164.641z"/>
</g>
</svg>
