<?xml version="1.0" encoding="utf-8"?>
<!-- Generator: Adobe Illustrator 17.0.0, SVG Export Plug-In . SVG Version: 6.00 Build 0)  -->
<!DOCTYPE svg PUBLIC "-//W3C//DTD SVG 1.1//EN" "http://www.w3.org/Graphics/SVG/1.1/DTD/svg11.dtd">
<svg version="1.1" id="Layer_1" xmlns="http://www.w3.org/2000/svg" xmlns:xlink="http://www.w3.org/1999/xlink" x="0px" y="0px"
	 width="1000px" height="750px" viewBox="0 0 1000 750" enable-background="new 0 0 1000 750" xml:space="preserve">
<path d="M858.035,341.822c52.041-4.094,87.341-26.29,100.843-56.453c-18.679,10.829-76.981,22.643-109.127,11.391
	c-1.619-7.114-3.328-13.82-5.038-19.897c-24.58-84.726-108.408-152.843-196.283-144.646c7.067-2.679,14.291-5.27,21.427-7.432
	c9.681-3.328,66.494-12.018,57.578-30.79c-7.605-16.636-76.935,12.495-89.948,16.299c17.199-6.08,45.785-16.615,48.668-35.294
	c-26.29,3.507-52.268,15.213-72.209,32.32c7.158-7.339,12.604-16.297,13.866-25.886c-70.592,42.32-111.602,127.651-144.873,210.463
	c-26.203-23.768-49.387-42.587-70.186-53.033c-58.343-29.462-128.077-60.099-237.564-98.32
	c-3.375,34.035,17.918,79.416,79.144,109.486c-13.235-1.663-37.544,2.074-56.947,6.439c7.965,39.033,33.717,71.173,103.724,86.727
	c-32.012,1.983-48.487,8.823-63.432,23.525c14.539,27.143,50.018,59.155,113.921,52.581c-70.975,28.858-29.015,82.181,28.858,74.215
	c-98.664,95.776-254.112,88.796-343.388,8.621C270.221,800.927,777.002,678.791,852.5,391.029
	c56.499,0.429,89.816-18.459,110.431-39.253C930.339,356.952,883.114,351.636,858.035,341.822z"/>
</svg>
