<?xml version="1.0" encoding="utf-8"?>
<!-- Generator: Adobe Illustrator 17.0.0, SVG Export Plug-In . SVG Version: 6.00 Build 0)  -->
<!DOCTYPE svg PUBLIC "-//W3C//DTD SVG 1.1//EN" "http://www.w3.org/Graphics/SVG/1.1/DTD/svg11.dtd">
<svg version="1.1" id="Layer_1" xmlns="http://www.w3.org/2000/svg" xmlns:xlink="http://www.w3.org/1999/xlink" x="0px" y="0px"
	 width="600px" height="600px" viewBox="0 0 600 600" enable-background="new 0 0 600 600" xml:space="preserve">
<g>
	<g>
		<g>
			<path d="M532.023,278.5c33.725-2.653,56.601-17.037,65.351-36.584c-12.105,7.018-49.887,14.674-70.719,7.382
				c-1.049-4.61-2.157-8.956-3.265-12.894c-15.929-54.906-70.253-99.049-127.2-93.737c4.58-1.736,9.261-3.415,13.886-4.816
				c6.274-2.157,43.091-7.788,37.313-19.953c-4.929-10.782-49.858,8.096-58.291,10.561c11.146-3.94,29.671-10.767,31.539-22.872
				c-17.037,2.273-33.872,9.859-46.795,20.945c4.639-4.756,8.168-10.561,8.986-16.775c-45.747,27.425-72.323,82.723-93.884,136.389
				c-16.981-15.403-32.005-27.598-45.484-34.368c-37.809-19.093-83-38.947-153.952-63.716
				c-2.187,22.056,11.612,51.465,51.289,70.952c-8.577-1.078-24.33,1.344-36.904,4.173c5.162,25.295,21.85,46.123,67.218,56.203
				c-20.745,1.285-31.422,5.718-41.107,15.245c9.422,17.59,32.414,38.335,73.826,34.075c-45.995,18.701-18.803,53.257,18.701,48.095
				C158.592,438.872,57.855,434.349,0,382.392c151.093,193.629,479.51,114.479,528.436-72.004
				c36.614,0.278,58.205-11.962,71.564-25.438C578.879,288.305,548.275,284.86,532.023,278.5"/>
		</g>
	</g>
</g>
</svg>
