<?xml version="1.0" encoding="utf-8"?>
<!-- Generator: Adobe Illustrator 17.0.0, SVG Export Plug-In . SVG Version: 6.00 Build 0)  -->
<!DOCTYPE svg PUBLIC "-//W3C//DTD SVG 1.1//EN" "http://www.w3.org/Graphics/SVG/1.1/DTD/svg11.dtd">
<svg version="1.1" id="Layer_1" xmlns="http://www.w3.org/2000/svg" xmlns:xlink="http://www.w3.org/1999/xlink" x="0px" y="0px"
	 width="600px" height="600px" viewBox="0 0 600 600" enable-background="new 0 0 600 600" xml:space="preserve">
<g>
	<path d="M225.774,139.458l-113.723,76.531c-10.314,6.934-28.945,12.625-41.387,12.625l-48.049,0
		C10.182,228.614,0,238.797,0,251.229v106.01c0,12.441,10.182,22.624,22.615,22.624h48.058c12.433,0,30.915,5.892,41.063,13.089
		l114.362,81.232c10.147,7.206,18.439,2.916,18.439-9.517V149.457C244.537,137.024,236.088,132.524,225.774,139.458z"/>
	<path d="M312.067,207.741c46.78,58.967,34.321,126.095-3.099,186.174c-13.518,21.713,20.715,41.57,34.19,19.962
		c48.076-77.205,55.176-160.687-3.099-234.118C324.185,159.762,296.386,187.972,312.067,207.741z"/>
	<path d="M431.482,123.217c-16.609-19.437-44.486,8.694-28,27.982c65.017,76.102,64.597,230.345,0,306.551
		c-16.39,19.341,11.461,47.489,28,27.982C510.753,392.208,511.261,216.61,431.482,123.217z"/>
	<path d="M512.521,48.761c-17.161-18.964-45.081,9.114-28.008,27.982c97.824,108.059,105.423,341.302,0,446.97
		c-18.027,18.071,9.964,46.071,28.008,27.982C633.599,430.311,624.634,172.659,512.521,48.761z"/>
</g>
</svg>
