<?xml version="1.0" encoding="utf-8"?>
<!-- Generator: Adobe Illustrator 17.0.0, SVG Export Plug-In . SVG Version: 6.00 Build 0)  -->
<!DOCTYPE svg PUBLIC "-//W3C//DTD SVG 1.1//EN" "http://www.w3.org/Graphics/SVG/1.1/DTD/svg11.dtd">
<svg version="1.1" id="Layer_1" xmlns="http://www.w3.org/2000/svg" xmlns:xlink="http://www.w3.org/1999/xlink" x="0px" y="0px"
	 width="600px" height="600px" viewBox="0 0 600 600" enable-background="new 0 0 600 600" xml:space="preserve">
<g>
	<path d="M559.615,80.988c26.125,0,38.317,15.675,38.317,34.834v162.843c0,18.288-13.934,33.092-32.217,34.834L213.9,352.686
		c-28.738,3.483-32.221,40.929,1.742,40.929l312.074,24.667c35.922,18.68,63.946,31.938,21.454,31.938H208.675
		c-76.634,0-105.372-84.467-45.284-128.884l30.479-22.642L85.887,62.7H32.765c-40.929,0-40.929-62.7,0-62.7h61.83
		c31.35,0,40.059,14.804,49.638,37.446l21.771,43.542L559.615,80.988z M184.287,546.012c0,29.609-23.513,53.988-54.863,53.988
		c-29.609,0-53.992-24.384-53.992-53.988c0-30.479,24.384-54.863,53.992-54.863C160.774,491.149,184.287,515.533,184.287,546.012z
		 M215.637,188.972h87.955l-19.158-59.217h-95.792L215.637,188.972z M334.067,290.861l-22.642-70.538h-82.73l35.704,77.5
		L334.067,290.861z M315.78,129.755l18.288,59.217h86.209l-13.929-59.217H315.78z M442.922,279.54l-17.417-59.217h-82.73
		l21.771,67.05L442.922,279.54z M550.036,129.755H437.697l13.063,59.217h99.276V129.755z M552.648,546.012
		c0,29.609-23.513,53.988-53.992,53.988c-30.479,0-54.863-24.384-54.863-53.988c0-30.479,24.384-54.863,54.863-54.863
		C529.135,491.149,552.648,515.533,552.648,546.012z M550.036,220.323h-92.309l13.933,54.863l78.376-7.838V220.323z"/>
</g>
</svg>
