<?xml version="1.0" encoding="utf-8"?>
<!-- Generator: Adobe Illustrator 17.0.0, SVG Export Plug-In . SVG Version: 6.00 Build 0)  -->
<!DOCTYPE svg PUBLIC "-//W3C//DTD SVG 1.1//EN" "http://www.w3.org/Graphics/SVG/1.1/DTD/svg11.dtd">
<svg version="1.1" id="Layer_1" xmlns="http://www.w3.org/2000/svg" xmlns:xlink="http://www.w3.org/1999/xlink" x="0px" y="0px"
	 width="600px" height="600px" viewBox="0 0 600 600" enable-background="new 0 0 600 600" xml:space="preserve">
<g>
	<path fill="#231F20" d="M349.328,329.148c-5.688-3.432-13.812-6.6-23.946-9.498v68.28c3.87-0.648,7.458-1.518,10.632-2.616
		c17.376-6.096,26.058-17.346,26.058-33.834C362.078,341.874,357.842,334.434,349.328,329.148z"/>
	<path fill="#231F20" d="M240.26,218.754c0,10.434,4.728,18.234,14.166,23.352c4.026,2.262,11.022,4.764,20.916,7.542v-65.196
		c-7.986,1.56-15.018,4.056-20.694,7.854C245.048,198.594,240.26,207.468,240.26,218.754z"/>
	<path fill="#231F20" d="M548.451,76.758c-68.79-68.43-180.025-68.16-248.455,0.666C231.566,8.598,120.338,8.327,51.547,76.758
		c-68.796,68.406-70.392,178.716,5.256,254.377c84.45,84.408,219.553,219.582,243.181,243.247
		c23.664-23.664,158.742-158.833,243.192-243.247C618.861,255.474,617.241,145.158,548.451,76.758z M389.96,413.245
		c-16.23,13.908-37.8,22.23-64.578,25.152v29.34H275.36v-29.682c-25.662-3.234-46.758-11.37-63.24-24.366
		c-21.996-17.364-32.976-41.178-32.976-71.508h58.14c1.86,13.326,5.592,23.286,11.1,29.886c6.228,7.374,15.234,12.45,26.964,15.36
		V308.13c-29.94-6.72-50.628-14.064-62.01-21.912c-19.638-13.44-29.478-34.494-29.478-63.09c0-26.13,9.612-47.766,28.872-65.07
		c15.186-13.68,36.12-21.846,62.622-24.69V107.31c0-0.048-0.018-0.048-0.018-0.048l50.046,0.09v27.306
		c19.338,3.552,36.552,10.776,51.624,21.912c21.978,16.332,33.456,39.918,34.554,70.902h-58.554
		c-1.104-17.502-8.922-29.97-23.544-37.35c-1.272-0.66-2.688-1.128-4.086-1.68v73.362l18.936,4.458
		c22.422,5.268,39.234,12.342,50.436,21.126c17.376,13.752,26.088,33.606,26.088,59.574
		C420.854,373.554,410.516,395.725,389.96,413.245z"/>
</g>
</svg>
