<?xml version="1.0" encoding="utf-8"?>
<!-- Generator: Adobe Illustrator 17.0.0, SVG Export Plug-In . SVG Version: 6.00 Build 0)  -->
<!DOCTYPE svg PUBLIC "-//W3C//DTD SVG 1.1//EN" "http://www.w3.org/Graphics/SVG/1.1/DTD/svg11.dtd">
<svg version="1.1" id="Layer_1" xmlns="http://www.w3.org/2000/svg" xmlns:xlink="http://www.w3.org/1999/xlink" x="0px" y="0px"
	 width="600px" height="600px" viewBox="0 0 600 600" enable-background="new 0 0 600 600" xml:space="preserve">
<g>
	<g>
		<g>
			<polygon points="37.938,101.427 300.06,349.98 564.567,101.427 564.243,101.427 			"/>
			<path d="M600,139.041c0-2.826-0.354-5.607-1.209-8.838L413.166,304.635l183.528,170.967c2.241-5.064,3.306-9.858,3.306-14.604
				V139.041z"/>
			<path d="M0,460.935c0,3.969,0.708,8.016,1.977,11.97l185.064-168.909L1.536,128.1C0.558,131.742,0,135.39,0,139.041V460.935z"/>
			<polygon points="380.715,335.037 299.91,410.919 219.402,334.599 39.591,498.573 556.338,498.573 			"/>
		</g>
	</g>
</g>
</svg>
