<?xml version="1.0" encoding="utf-8"?>
<!-- Generator: Adobe Illustrator 17.0.0, SVG Export Plug-In . SVG Version: 6.00 Build 0)  -->
<!DOCTYPE svg PUBLIC "-//W3C//DTD SVG 1.1//EN" "http://www.w3.org/Graphics/SVG/1.1/DTD/svg11.dtd">
<svg version="1.1" id="Layer_1" xmlns="http://www.w3.org/2000/svg" xmlns:xlink="http://www.w3.org/1999/xlink" x="0px" y="0px"
	 width="600px" height="600px" viewBox="0 0 600 600" enable-background="new 0 0 600 600" xml:space="preserve">
<g>
	<g>
		<g>
			<g>
				<polygon fill="#010101" points="492.56,600 359.111,448.086 456.891,359.525 590.388,511.439 492.56,600 				"/>
			</g>
		</g>
	</g>
	<g>
		<path fill="#010101" d="M9.612,224.715c0-24.364,4.03-49.235,12.423-73.475C62.509,34.046,190.526-28.163,307.764,12.405
			c92.979,32.22,151.213,119.182,151.213,212.31c0,24.334-3.98,49.036-12.324,73.47c-40.618,117.244-168.536,179.379-285.829,138.74
			C67.945,404.869,9.612,317.813,9.612,224.715 M70.37,224.715c0,69.783,44.45,131.918,110.451,154.751
			c41.244,14.316,85.699,11.598,125.1-7.499c39.311-19.092,68.814-52.405,83.031-93.63c6.167-17.546,9.079-35.525,9.079-53.623
			c0-69.738-44.161-131.948-110.088-154.831c-41.443-14.192-85.868-11.618-125.175,7.499c-39.306,19.171-68.908,52.46-83.274,93.709
			l0,0C73.62,188.465,70.37,206.513,70.37,224.715L70.37,224.715z"/>
	</g>
</g>
</svg>
