<?xml version="1.0" encoding="utf-8"?>
<!-- Generator: Adobe Illustrator 17.0.0, SVG Export Plug-In . SVG Version: 6.00 Build 0)  -->
<!DOCTYPE svg PUBLIC "-//W3C//DTD SVG 1.1//EN" "http://www.w3.org/Graphics/SVG/1.1/DTD/svg11.dtd">
<svg version="1.1" id="Layer_1" xmlns="http://www.w3.org/2000/svg" xmlns:xlink="http://www.w3.org/1999/xlink" x="0px" y="0px"
	 width="600px" height="600px" viewBox="0 0 600 600" enable-background="new 0 0 600 600" xml:space="preserve">
<path id="Tumblr_2_" d="M352.653,490.384c-10.091-5.918-19.349-16.107-23.034-25.925c-3.737-9.895-3.268-29.935-3.268-64.752
	V245.853h139.922V138.769H326.351V0H240.27c-3.841,30.905-10.912,56.439-21.185,76.465c-10.273,20.052-23.835,37.188-40.839,51.504
	c-16.915,14.297-44.486,25.313-68.249,32.91v84.974h82.201v210.417c0,27.467,2.904,48.425,8.698,62.852
	c5.821,14.414,16.211,28.073,31.237,40.924c15.013,12.715,33.138,22.631,54.401,29.609C307.77,596.556,324.111,600,351.78,600
	c24.336,0,46.993-2.455,67.995-7.253c20.977-4.922,44.401-13.392,70.228-25.41v-94.661c-30.306,19.759-60.775,29.603-91.425,29.603
	C381.338,502.279,366.09,498.314,352.653,490.384z"/>
</svg>
