<?xml version="1.0" encoding="utf-8"?>
<!-- Generator: Adobe Illustrator 17.0.0, SVG Export Plug-In . SVG Version: 6.00 Build 0)  -->
<!DOCTYPE svg PUBLIC "-//W3C//DTD SVG 1.1//EN" "http://www.w3.org/Graphics/SVG/1.1/DTD/svg11.dtd">
<svg version="1.1" id="Layer_1" xmlns="http://www.w3.org/2000/svg" xmlns:xlink="http://www.w3.org/1999/xlink" x="0px" y="0px"
	 width="600px" height="600px" viewBox="0 0 600 600" enable-background="new 0 0 600 600" xml:space="preserve">
<g id="vJlU7F_1_">
	<g>
		<path fill="#FFFFFF" d="M165.781,27.977C137.672,2.719,105.353-6.527,69.1,4.738C31.749,16.343,8.807,42.563,1.783,81.067
			c-5.936,32.539,3.909,60.904,26.254,84.652C74.133,119.623,119.686,74.072,165.781,27.977z"/>
		<path d="M596.159,599.85c-6.853-3.096-13.629-6.377-20.571-9.258c-68.128-28.266-136.292-56.445-204.403-84.751
			c-3.05-1.267-6.138-3.075-8.453-5.386c-97.633-97.481-195.181-195.047-292.733-292.608c-1.124-1.124-2.173-2.323-2.875-3.076
			c45.805-45.804,91.478-91.476,137.566-137.563c0.847,0.804,2.415,2.226,3.91,3.721c96.996,96.985,194.001,193.961,290.905,291.038
			c2.722,2.727,4.936,6.294,6.425,9.869c30.429,73.076,60.713,146.213,91.058,219.324c0.736,1.774,1.842,3.394,2.775,5.086
			C600.363,599.248,599.162,600.45,596.159,599.85z M434.869,436.263c-1.684-0.36-3.995-0.9-6.324-1.345
			c-16.871-3.226-30.218,2.615-38.22,17.749c-3.7,6.998-5.854,14.81-8.758,22.234c-1.583,4.046-0.084,5.849,3.888,7.477
			c41.969,17.208,83.858,34.61,125.721,52.077c2.95,1.231,4.893,1.415,7.263-1.188c4.712-5.174,10.002-9.824,14.678-15.028
			c1.233-1.372,2.086-4.38,1.442-5.953c-17.489-42.715-35.16-85.357-53.011-127.922c-0.621-1.48-3.86-3.308-5.099-2.853
			c-9.511,3.496-19.153,6.896-28.109,11.563c-7.78,4.055-12.528,11.409-13.334,20.29
			C434.335,420.767,434.869,428.28,434.869,436.263z"/>
		<path d="M165.781,27.977c-46.096,46.095-91.648,91.646-137.744,137.742C5.692,141.97-4.152,113.606,1.783,81.067
			C8.807,42.563,31.749,16.343,69.1,4.738C105.353-6.527,137.672,2.719,165.781,27.977z"/>
	</g>
</g>
</svg>
