<?xml version="1.0" encoding="utf-8"?>
<!-- Generator: Adobe Illustrator 17.0.0, SVG Export Plug-In . SVG Version: 6.00 Build 0)  -->
<!DOCTYPE svg PUBLIC "-//W3C//DTD SVG 1.1//EN" "http://www.w3.org/Graphics/SVG/1.1/DTD/svg11.dtd">
<svg version="1.1" id="Layer_1" xmlns="http://www.w3.org/2000/svg" xmlns:xlink="http://www.w3.org/1999/xlink" x="0px" y="0px"
	 width="1000px" height="750px" viewBox="0 0 1000 750" enable-background="new 0 0 1000 750" xml:space="preserve">
<g>
	<path d="M562.415,535.796c5.851,5.855,15.346,5.855,21.2,0c5.854-5.854,5.854-15.345,0-21.2L445.408,376.389l140.985-140.985
		c5.854-5.855,5.854-15.346,0-21.2c-2.927-2.927-6.763-4.391-10.601-4.391c-3.835,0-7.673,1.464-10.601,4.391L413.608,365.789
		c-2.928,2.927-4.392,6.764-4.392,10.6s1.464,7.673,4.393,10.6L562.415,535.796z"/>
	<path d="M500,675c165.419,0,300-134.578,300-300S665.419,75,500,75S200,209.578,200,375S334.581,675,500,675z M500,95.225
		c154.266,0,279.775,125.506,279.775,279.775S654.266,654.775,500,654.775S220.225,529.269,220.225,375S345.734,95.225,500,95.225z"
		/>
</g>
</svg>
