<?xml version="1.0" encoding="utf-8"?>
<!-- Generator: Adobe Illustrator 17.0.0, SVG Export Plug-In . SVG Version: 6.00 Build 0)  -->
<!DOCTYPE svg PUBLIC "-//W3C//DTD SVG 1.1//EN" "http://www.w3.org/Graphics/SVG/1.1/DTD/svg11.dtd">
<svg version="1.1" id="Layer_1" xmlns="http://www.w3.org/2000/svg" xmlns:xlink="http://www.w3.org/1999/xlink" x="0px" y="0px"
	 width="1000px" height="750px" viewBox="0 0 1000 750" enable-background="new 0 0 1000 750" xml:space="preserve">
<g>
	<g>
		<path d="M480.802,626.442c-6.9,0-13.749-2.23-19.438-6.58L290.617,489.268l-125.542-25.955
			c-14.858-3.069-25.514-16.154-25.514-31.324V324.616c0-15.068,10.516-28.091,25.244-31.269l125.386-27.044l170.693-135.788
			c9.61-7.649,22.745-9.114,33.811-3.78c11.062,5.338,18.091,16.533,18.091,28.813v438.907c0,12.171-6.908,23.288-17.817,28.677
			C490.478,625.353,485.629,626.442,480.802,626.442z M203.537,405.937l107.186,22.16c4.709,0.972,9.141,2.995,12.96,5.916
			l125.128,95.706V221.87l-124.648,99.157c-3.85,3.065-8.36,5.197-13.171,6.236l-107.455,23.175V405.937z"/>
	</g>
	<g>
		<path d="M617.238,546.797c-0.387,0-0.777-0.012-1.168-0.035c-9.668-0.558-17.548-7.97-18.696-17.587L582.47,404.343l-0.679,3.124
			c-1.999,9.188-10.129,15.744-19.536,15.744h-29.012v-39.985h12.901l22.534-103.652c2.073-9.543,10.64-16.224,20.488-15.721
			c9.75,0.465,17.739,7.903,18.899,17.599l15.732,131.758l2.995-12.542c1.812-7.587,7.872-13.428,15.518-14.959
			c7.649-1.535,15.486,1.519,20.082,7.825l8.727,11.972l19.903-76.447c2.034-7.817,8.575-13.639,16.576-14.76
			c8.009-1.164,15.885,2.683,19.988,9.637l45.967,77.896l86.026-1.843l0.859,39.977l-97.724,2.093
			c-7.552,0.09-13.975-3.604-17.646-9.828l-27.47-46.549l-18.419,70.75c-1.948,7.478-8.028,13.163-15.619,14.604
			c-7.595,1.453-15.334-1.62-19.883-7.864l-8.059-11.054l-18.946,79.329C634.513,540.491,626.43,546.797,617.238,546.797z"/>
	</g>
</g>
</svg>
