<?xml version="1.0" encoding="utf-8"?>
<!-- Generator: Adobe Illustrator 19.2.1, SVG Export Plug-In . SVG Version: 6.00 Build 0)  -->
<svg version="1.1" id="Layer_3" xmlns="http://www.w3.org/2000/svg" xmlns:xlink="http://www.w3.org/1999/xlink" x="0px" y="0px"
	 viewBox="0 0 95 95" style="enable-background:new 0 0 95 95;" xml:space="preserve">
<g>
	<path d="M86.4,58.6H10.6V48.3h75.8V58.6z M12.7,56.4h71.5v-6H12.7V56.4z"/>
	<path d="M34.9,78.6H24.1V15.3c0-2.7,2.3-3.7,3.8-3.7h3.2c2.7,0,3.7,2.2,3.7,3.8V78.6z M26.2,76.4h6.5v-61c0-0.3-0.2-1.6-1.6-1.6
		h-3.2c-0.5,0-1.6,0.2-1.6,1.5V76.4z"/>
	<path d="M73,78.6H62.3V15.1c0-1.3,0.3-2.3,1.1-2.9c0.7-0.6,1.5-0.6,1.9-0.6H70c0.3,0,1.2,0,2,0.6c0.7,0.6,1,1.5,1,2.6V78.6z
		 M64.4,76.4h6.5V14.8c0-0.5-0.1-0.8-0.3-0.9c-0.1-0.1-0.3-0.1-0.4-0.1h-0.1h-0.1h-5.2c0,0-0.1,0-0.2,0.1c-0.1,0-0.3,0.3-0.3,1.2
		L64.4,76.4L64.4,76.4z"/>
	<path d="M48.6,28.1c-10.6,0-15.6-9.2-15.7-9.6l1.9-1c0,0.1,4.6,8.5,13.8,8.5c9.6,0,13.7-8.6,13.8-9l2,0.9
		C64.2,18.3,59.6,28.1,48.6,28.1z"/>
	<path d="M42.9,43.4c-0.6,0-1.1-0.5-1.1-1.1V26c0-0.6,0.5-1.1,1.1-1.1S44,25.4,44,26v16.3C44,42.9,43.5,43.4,42.9,43.4z"/>
	<path d="M54.2,43.4c-0.6,0-1.1-0.5-1.1-1.1V26c0-0.6,0.5-1.1,1.1-1.1s1.1,0.5,1.1,1.1v16.3C55.2,42.9,54.8,43.4,54.2,43.4z"/>
	<path d="M11.1,43.4c-0.6,0-1.1-0.5-1.1-1.1c0-0.6,0.5-1.1,1.1-1.1c0.2,0,5.3-0.1,8.8-5.6c2.8-4.4,4.2-12,4.2-12.1
		c0.1-0.6,0.6-1,1.2-0.9c0.6,0.1,1,0.6,0.9,1.2c0,0.3-1.5,8.2-4.5,12.9C17.5,43.3,11.3,43.4,11.1,43.4z"/>
	<path d="M85.9,43.3c-0.3,0-6.5-0.1-10.6-6.5c-3-4.7-4.5-12.5-4.5-12.9c-0.1-0.6,0.3-1.2,0.9-1.2c0.6-0.1,1.2,0.3,1.2,0.9
		c0,0.1,1.4,7.8,4.2,12.1c3.5,5.5,8.7,5.6,8.8,5.6c0.6,0,1.1,0.5,1.1,1.1C87,42.9,86.5,43.3,85.9,43.3z"/>
</g>
</svg>
