<?xml version="1.0" encoding="utf-8"?>
<!-- Generator: Adobe Illustrator 19.2.1, SVG Export Plug-In . SVG Version: 6.00 Build 0)  -->
<svg version="1.1" id="Layer_3" xmlns="http://www.w3.org/2000/svg" xmlns:xlink="http://www.w3.org/1999/xlink" x="0px" y="0px"
	 viewBox="0 0 95 95" style="enable-background:new 0 0 95 95;" xml:space="preserve">
<g id="Forma_1">
	<g>
		<path d="M58.3,60.3c0,0.7-0.3,1.4-0.8,1.9c-0.5,0.5-1.2,0.8-1.9,0.8H41.7c-0.7,0-1.4-0.3-1.9-0.8c-0.5-0.5-0.8-1.2-0.8-1.9v-6.9
			H10v20.7c0,1.9,0.7,3.5,2,4.9c1.4,1.4,3,2,4.9,2h63.5c1.9,0,3.5-0.7,4.9-2c1.4-1.4,2-3,2-4.9V53.4h-29V60.3z M43.1,53.4v5.5h11
			v-5.5H43.1z M85.2,27.8c-1.4-1.4-3-2-4.9-2H65.2v-6.9c0-1.1-0.4-2.1-1.2-2.9c-0.8-0.8-1.8-1.2-2.9-1.2H36.2
			c-1.1,0-2.1,0.4-2.9,1.2c-0.8,0.8-1.2,1.8-1.2,2.9v6.9H16.9c-1.9,0-3.5,0.7-4.9,2c-1.4,1.4-2,3-2,4.9v16.6h77.3V32.7
			C87.3,30.8,86.6,29.2,85.2,27.8z M59.7,25.8H37.6v-5.5h22.1V25.8z"/>
	</g>
</g>
</svg>
