<?xml version="1.0" encoding="utf-8"?>
<!-- Generator: Adobe Illustrator 19.2.1, SVG Export Plug-In . SVG Version: 6.00 Build 0)  -->
<svg version="1.1" id="Layer_1" xmlns="http://www.w3.org/2000/svg" xmlns:xlink="http://www.w3.org/1999/xlink" x="0px" y="0px"
	 viewBox="0 0 1792 1138.6" style="enable-background:new 0 0 1792 1138.6;" xml:space="preserve">
<g>
	<path d="M1022.5,770.3c87.4-36.8,156.4-87,206.9-150.5c50.6-63.5,75.8-132.6,75.8-207.3s-25.3-143.9-75.8-207.3
		c-50.5-63.5-119.5-113.6-206.9-150.5S840.1-0.6,737.3-0.6c-102.7,0-197.8,18.4-285.2,55.3c-87.4,36.8-156.4,87-206.9,150.5
		c-50.6,63.5-75.8,132.6-75.8,207.3c0,64,19.1,124.3,57.3,180.7C264.9,649.7,317.3,697.3,384,736c-5.4,12.9-10.9,24.7-16.5,35.5
		c-5.7,10.8-12.4,21.1-20.2,31.1c-7.8,10-13.8,17.7-18.2,23.4c-4.3,5.6-11.3,13.6-21,23.8c-9.7,10.2-15.9,16.9-18.6,20.2
		c0-0.6-1.1,0.7-3.2,3.6c-2.2,3-3.4,4.3-3.6,4c-0.3-0.3-1.3,1.1-3.2,4c-1.9,3-2.8,4.4-2.8,4.4l-2,4c-0.8,1.6-1.3,3.2-1.6,4.8
		c-0.3,1.6-0.4,3.4-0.4,5.2c0,1.9,0.3,3.6,0.8,5.2c1.1,7,4.2,12.6,9.3,16.9c5.1,4.3,10.6,6.4,16.5,6.4h2.4
		c26.9-3.8,50-8.1,69.4-12.9c82.8-21.5,157.6-55.9,224.3-103.3c48.4,8.6,95.7,12.9,142,12.9C840.1,825.5,935.1,807.1,1022.5,770.3z
		 M571.2,702.9l-35.5,25c-15.1,10.2-31.7,20.7-50,31.5l28.2-67.8l-78.3-45.2c-51.6-30.1-91.7-65.6-120.2-106.5
		c-28.5-40.9-42.8-83.4-42.8-127.5c0-54.9,21.1-106.2,63.3-154.1s99.1-85.8,170.6-113.8c71.5-28,148.4-42,230.7-42
		s159.2,14,230.7,42c71.5,28,128.4,65.9,170.6,113.8c42.2,47.9,63.3,99.2,63.3,154.1c0,54.9-21.1,106.2-63.3,154.1
		c-42.2,47.9-99.1,85.8-170.6,113.8c-71.5,28-148.4,41.9-230.7,41.9c-40.3,0-81.5-3.8-123.4-11.3L571.2,702.9z"/>
	<path d="M1557.8,800.1c38.2-56.2,57.3-116.6,57.3-181.1c0-66.2-20.2-128-60.5-185.6c-40.3-57.5-95.2-105.4-164.6-143.6
		c12.4,40.3,18.5,81.2,18.5,122.6c0,72.1-18,140.4-54.1,204.9c-36,64.5-87.7,121.5-154.9,171c-62.4,45.2-133.4,79.9-213,104.1
		c-79.6,24.2-162.7,36.3-249.3,36.3c-16.1,0-39.8-1.1-71-3.2c108.1,71,235,106.5,380.8,106.5c46.3,0,93.6-4.3,142-12.9
		c66.7,47.3,141.5,81.8,224.3,103.3c19.4,4.9,42.5,9.1,69.4,12.9c6.4,0.5,12.4-1.3,17.8-5.6c5.4-4.3,8.9-10.2,10.5-17.7
		c-0.3-3.2,0-5,0.8-5.2c0.8-0.3,0.7-2-0.4-5.2c-1.1-3.2-1.6-4.8-1.6-4.8l-2-4c-0.6-1.1-1.5-2.6-2.8-4.4c-1.3-1.9-2.4-3.2-3.2-4
		c-0.8-0.8-2-2.1-3.6-4c-1.6-1.9-2.7-3.1-3.2-3.6c-2.7-3.2-8.9-9.9-18.5-20.2c-9.7-10.2-16.7-18.2-21-23.8
		c-4.3-5.6-10.4-13.4-18.2-23.4c-7.8-9.9-14.5-20.3-20.2-31.1c-5.6-10.8-11.2-22.6-16.5-35.5
		C1467.2,903.8,1519.7,856.3,1557.8,800.1z"/>
</g>
</svg>
