<?xml version="1.0" encoding="utf-8"?>
<!-- Generator: Adobe Illustrator 17.0.0, SVG Export Plug-In . SVG Version: 6.00 Build 0)  -->
<!DOCTYPE svg PUBLIC "-//W3C//DTD SVG 1.1//EN" "http://www.w3.org/Graphics/SVG/1.1/DTD/svg11.dtd">
<svg version="1.1" id="Layer_1" xmlns="http://www.w3.org/2000/svg" xmlns:xlink="http://www.w3.org/1999/xlink" x="0px" y="0px"
	 width="1000px" height="750px" viewBox="0 0 1000 750" enable-background="new 0 0 1000 750" xml:space="preserve">
<path d="M245.86,664.73l24.07-7.683l109.917-30.384l41.988-11.619l89.414-24.739l42.004-11.578l278.396-76.991
	c6.785-1.871,12.238-6.895,14.657-13.525c2.394-6.613,1.473-13.982-2.528-19.788L566.255,63.995
	c-3.976-5.806-10.513-9.322-17.551-9.449c-7.095-0.283-13.717,3.147-17.9,8.809L168.037,553.344 M533.406,539.004l-155.999,43.127
	l-133.54,36.924l-7.66,2.117l-31.027-45.218l4.729-6.387l337.706-455.744l242.982,354.082L533.406,539.004z"/>
<path d="M522.328,228.247c-8.092-6.258-19.761-4.766-26.027,3.343L308.545,473.337c-6.266,8.109-4.766,19.761,3.343,26.027
	c3.371,2.579,7.354,3.864,11.305,3.87c5.553,0.008,11.057-0.79,14.719-5.528l187.767-243.432
	C531.937,246.165,530.428,234.513,522.328,228.247z"/>
<path stroke="#000000" stroke-width="9" stroke-miterlimit="10" d="M398.234,606.266c9.699,27.702,36.084,47.641,67.059,47.689
	c39.226,0.06,71.186-31.804,71.246-71.03l25.95-23.918c1.884,7.681,2.878,15.707,2.865,23.962
	c-0.084,55.115-44.991,99.885-100.105,99.801c-43.67-0.066-80.847-28.274-94.361-67.403L398.234,606.266z"/>
<path stroke="#000000" stroke-width="5" stroke-miterlimit="10" d="M149.661,542.425c-8.895,6.177-11.104,18.431-4.914,27.339
	l76.258,110.708c6.191,8.908,18.431,11.104,27.339,4.914c3.677-2.581,6.243-6.193,7.507-10.181
	c1.777-5.603,2.724-11.413-0.893-16.619L177.003,547.33C170.809,538.431,158.566,536.243,149.661,542.425z"/>
</svg>
