<?xml version="1.0" encoding="utf-8"?>
<!-- Generator: Adobe Illustrator 19.2.1, SVG Export Plug-In . SVG Version: 6.00 Build 0)  -->
<svg version="1.1" id="Layer_3" xmlns="http://www.w3.org/2000/svg" xmlns:xlink="http://www.w3.org/1999/xlink" x="0px" y="0px"
	 viewBox="0 0 95 95" style="enable-background:new 0 0 95 95;" xml:space="preserve">
<polygon points="31.6,16.4 32.8,19.3 35.9,19.6 33.5,21.6 34.3,24.6 31.6,23 28.9,24.6 29.7,21.6 27.3,19.6 30.4,19.3 "/>
<polygon points="49,16.4 50.2,19.3 53.2,19.6 50.9,21.6 51.6,24.6 49,23 46.3,24.6 47.1,21.6 44.7,19.6 47.8,19.3 "/>
<polygon points="66.3,16.4 67.5,19.3 70.6,19.6 68.3,21.6 69,24.6 66.3,23 63.7,24.6 64.4,21.6 62,19.6 65.1,19.3 "/>
<path d="M77,30.3H19.9l0-1.2c0-0.1,0.2-9.4,0.2-13.3c0-0.5,0-2,0-2.3c0-1,0.4-1.7,0.8-2c0.8-0.7,1.8-0.7,2.1-0.7h50.8
	c1.3,0,2,0.5,2.5,1c0.7,0.8,0.7,1.8,0.6,2.2L77,30.3L77,30.3z M22.3,28h52.3V13.7c0,0,0-0.3-0.1-0.4c0-0.1-0.3-0.1-0.6-0.1H23h0
	c-0.1,0-0.3,0-0.3,0.1c0,0,0,0.1,0,0.2c0,0.3,0,1.8,0,2.3C22.5,18.9,22.4,25.3,22.3,28z"/>
<path d="M32.8,77.8l-11-5.8c-0.7-0.5-1.9-1.8-1.9-3.7V35.7h12.8V77.8z M23.1,70.1l7.3,3.8V38h-8.1v30.4C22.3,69.4,22.9,70,23.1,70.1
	z"/>
<path d="M64.2,77.8V35.7H77v32.7c0,1.9-1.2,3.2-1.9,3.7l-0.1,0L64.2,77.8z M66.6,38.1v35.9l7.3-3.8c0.1-0.1,0.8-0.7,0.8-1.7V38.1
	L66.6,38.1L66.6,38.1z"/>
<path d="M48.6,86l-6.4-3.2V35.7h12.8v47.4L48.6,86z M44.6,81.3l4.1,2l4-1.8V38.1h-8.1V81.3z"/>
</svg>
