<?xml version="1.0" encoding="utf-8"?>
<!-- Generator: Adobe Illustrator 17.0.0, SVG Export Plug-In . SVG Version: 6.00 Build 0)  -->
<!DOCTYPE svg PUBLIC "-//W3C//DTD SVG 1.1//EN" "http://www.w3.org/Graphics/SVG/1.1/DTD/svg11.dtd">
<svg version="1.1" id="Layer_1" xmlns="http://www.w3.org/2000/svg" xmlns:xlink="http://www.w3.org/1999/xlink" x="0px" y="0px"
	 width="1000px" height="750px" viewBox="0 0 1000 750" enable-background="new 0 0 1000 750" xml:space="preserve">
<path stroke="#000000" stroke-width="9" stroke-miterlimit="10" d="M354.701,651.061c9.156,26.151,34.064,44.974,63.305,45.019
	c37.03,0.056,67.201-30.023,67.257-67.053l24.497-22.579c1.779,7.251,2.717,14.827,2.705,22.62
	c-0.079,52.029-42.472,94.293-94.5,94.214c-41.225-0.063-76.32-26.691-89.078-63.629L354.701,651.061z"/>
<path stroke="#000000" stroke-width="5" stroke-miterlimit="10" d="M89.39,596.379c-8.403,5.835-10.49,17.412-4.642,25.827
	l72.04,104.585c5.848,8.415,17.412,10.49,25.827,4.642c3.474-2.438,5.897-5.85,7.092-9.617c1.678-5.293,2.573-10.782-0.844-15.7
	L115.22,601.013C109.369,592.606,97.803,590.539,89.39,596.379z"/>
<g>
	<path d="M206.5,703.5c-0.32,0-0.628-0.153-0.819-0.426l-82-117c-0.247-0.353-0.241-0.823,0.015-1.169L479.999,102.76
		c4.271-5.78,10.959-9.231,17.89-9.231c0.284,0,0.569,0.005,0.855,0.017c7.325,0.131,14.188,3.826,18.336,9.883l277.523,404.428
		c4.16,6.038,5.148,13.775,2.644,20.695c-2.521,6.907-8.252,12.195-15.332,14.147L503.52,619.69l-42.005,11.577l-131.401,36.358
		L224.772,697.46l-17.956,5.986C206.712,703.483,206.605,703.5,206.5,703.5z M451.006,255.379c-5.491,0-10.563,2.487-13.914,6.822
		L249.335,503.95c-5.916,7.655-4.497,18.702,3.164,24.623c3.122,2.389,6.822,3.655,10.696,3.661h0.001
		c4.961,0,10.425-0.611,13.925-5.14l187.767-243.432c5.908-7.656,4.485-18.702-3.171-24.625
		C458.621,256.645,454.917,255.379,451.006,255.379z"/>
	<path d="M497.889,94.53c0.271,0,0.543,0.005,0.815,0.016c7.037,0.126,13.575,3.643,17.551,9.449l277.524,404.429
		c4.001,5.806,4.922,13.175,2.528,19.788c-2.419,6.63-7.872,11.654-14.657,13.525l-278.396,76.991l-42.004,11.578l-89.414,24.739
		l-41.988,11.619L224.5,696.5l-18,6l-82-117l356.304-482.145C484.827,97.91,491.104,94.53,497.889,94.53 M263.28,533.234
		c5.523,0,10.99-0.815,14.632-5.528l187.767-243.432c6.258-8.109,4.749-19.761-3.351-26.027c-3.37-2.606-7.359-3.868-11.321-3.868
		c-5.552,0-11.049,2.479-14.706,7.211L248.545,503.337c-6.266,8.109-4.766,19.761,3.343,26.027c3.371,2.579,7.354,3.864,11.306,3.87
		C263.223,533.234,263.251,533.234,263.28,533.234 M497.889,92.53c-7.247,0-14.235,3.603-18.693,9.637L122.892,584.311
		c-0.511,0.692-0.523,1.632-0.029,2.337l82,117c0.382,0.545,0.999,0.852,1.638,0.852c0.211,0,0.424-0.033,0.632-0.103l17.957-5.986
		l105.303-29.825l41.976-11.616l89.414-24.739l42.002-11.577l278.397-76.991c7.389-2.037,13.372-7.558,16.003-14.767
		c2.617-7.228,1.585-15.304-2.76-21.609L517.904,102.863c-4.329-6.322-11.494-10.179-19.164-10.317
		C498.485,92.535,498.186,92.53,497.889,92.53L497.889,92.53z M263.28,533.234l-0.04-2c-3.697-0.006-7.187-1.202-10.137-3.459
		c-3.492-2.699-5.73-6.603-6.294-10.989c-0.564-4.386,0.615-8.728,3.318-12.227L437.88,262.817
		c3.162-4.093,7.946-6.438,13.126-6.438c3.687,0,7.179,1.193,10.098,3.45c7.221,5.586,8.563,16.004,2.991,23.223L276.329,526.484
		c-3.226,4.174-8.178,4.75-13.049,4.75V533.234L263.28,533.234z"/>
</g>
<path stroke="#000000" stroke-width="8" stroke-miterlimit="10" d="M720.5,7.5c-6.718-3.728-15.212-1.296-18.944,5.435L640.675,123
	c-3.732,6.731-1.296,15.212,5.435,18.944c2.795,1.532,5.898,2.034,8.832,1.591c4.124-0.624,8.12-1.841,10.301-5.774L725.94,26.443
	C729.667,19.713,727.225,11.233,720.5,7.5z"/>
<path stroke="#000000" stroke-width="8" stroke-miterlimit="10" d="M955.821,347.441c-1.143-7.597-8.252-12.845-15.862-11.697
	l-124.354,18.893c-7.611,1.148-12.845,8.252-11.697,15.862c0.491,3.15,1.986,5.915,4.127,7.969c3.01,2.887,6.412,5.311,10.859,4.641
	l125.235-19.802C951.735,362.155,956.965,355.047,955.821,347.441z"/>
<path stroke="#000000" stroke-width="8" stroke-miterlimit="10" d="M890.345,141.266c-4.463-6.254-13.177-7.71-19.441-3.237
	L768.62,211.233c-6.263,4.473-7.71,13.177-3.237,19.441c1.865,2.585,4.451,4.372,7.291,5.233c3.991,1.209,8.122,1.828,11.783-0.785
	l102.657-74.413C893.372,156.234,894.812,147.528,890.345,141.266z"/>
<path stroke="#000000" stroke-width="9" stroke-miterlimit="10" d="M1423.701,639.061c9.156,26.151,34.064,44.974,63.305,45.019
	c37.03,0.056,67.201-30.023,67.257-67.053l24.497-22.579c1.779,7.251,2.717,14.827,2.705,22.62
	c-0.079,52.029-42.472,94.293-94.5,94.214c-41.225-0.063-76.32-26.691-89.078-63.629L1423.701,639.061z"/>
<path stroke="#000000" stroke-width="5" stroke-miterlimit="10" d="M1158.39,584.379c-8.403,5.835-10.49,17.412-4.642,25.827
	l72.04,104.585c5.848,8.415,17.412,10.49,25.827,4.642c3.474-2.438,5.897-5.85,7.092-9.617c1.678-5.293,2.573-10.782-0.844-15.7
	l-73.643-105.103C1178.369,580.606,1166.803,578.539,1158.39,584.379z"/>
<g>
	<path d="M1275.5,691.5c-0.32,0-0.628-0.153-0.819-0.426l-82-117c-0.247-0.353-0.241-0.823,0.015-1.169L1548.999,90.76
		c4.271-5.78,10.959-9.231,17.89-9.231c0.284,0,0.569,0.005,0.855,0.017c7.325,0.131,14.188,3.826,18.336,9.883l277.523,404.428
		c4.16,6.038,5.148,13.775,2.644,20.695c-2.521,6.907-8.252,12.195-15.332,14.147L1572.52,607.69l-42.005,11.577l-131.401,36.358
		l-105.342,29.835l-17.956,5.986C1275.712,691.483,1275.605,691.5,1275.5,691.5z M1520.006,243.379
		c-5.491,0-10.563,2.487-13.914,6.822L1318.335,491.95c-5.916,7.655-4.497,18.702,3.164,24.623
		c3.122,2.389,6.822,3.655,10.696,3.661h0.001c4.961,0,10.425-0.611,13.925-5.14l187.767-243.432
		c5.908-7.656,4.485-18.702-3.171-24.625C1527.621,244.645,1523.917,243.379,1520.006,243.379z"/>
	<path d="M1566.889,82.53c0.271,0,0.543,0.005,0.815,0.016c7.037,0.126,13.575,3.643,17.551,9.449l277.524,404.429
		c4.001,5.806,4.922,13.175,2.528,19.788c-2.419,6.63-7.872,11.654-14.657,13.525l-278.396,76.991l-42.004,11.578l-89.414,24.739
		l-41.988,11.619L1293.5,684.5l-18,6l-82-117l356.304-482.145C1553.827,85.91,1560.104,82.53,1566.889,82.53 M1332.28,521.234
		c5.523,0,10.99-0.815,14.632-5.528l187.767-243.432c6.258-8.109,4.749-19.761-3.351-26.027c-3.37-2.606-7.359-3.868-11.321-3.868
		c-5.552,0-11.049,2.479-14.706,7.211l-187.756,241.747c-6.266,8.109-4.766,19.761,3.343,26.027
		c3.371,2.579,7.354,3.864,11.306,3.87C1332.223,521.234,1332.251,521.234,1332.28,521.234 M1566.889,80.53
		c-7.247,0-14.235,3.603-18.693,9.637l-356.304,482.144c-0.511,0.692-0.523,1.632-0.029,2.337l82,117
		c0.382,0.545,0.999,0.852,1.638,0.852c0.211,0,0.424-0.033,0.632-0.103l17.957-5.986l105.303-29.825l41.976-11.616l89.414-24.739
		l42.002-11.577l278.397-76.991c7.389-2.037,13.372-7.558,16.003-14.767c2.617-7.228,1.585-15.304-2.76-21.609L1586.904,90.863
		c-4.329-6.322-11.494-10.179-19.164-10.317C1567.485,80.535,1567.186,80.53,1566.889,80.53L1566.889,80.53z M1332.28,521.234
		l-0.04-2c-3.697-0.006-7.187-1.202-10.137-3.459c-3.492-2.699-5.73-6.603-6.294-10.989c-0.564-4.386,0.615-8.728,3.318-12.227
		l187.753-241.742c3.162-4.093,7.946-6.438,13.126-6.438c3.687,0,7.179,1.193,10.098,3.45c7.221,5.586,8.563,16.004,2.991,23.223
		l-187.766,243.432c-3.226,4.174-8.178,4.75-13.049,4.75V521.234L1332.28,521.234z"/>
</g>
<ellipse cx="2122.5" cy="-20.5" rx="208" ry="152"/>
<path d="M1971.42,174.943c0,0,52.436-64.833,40.08-108.443s16.048-13.913,16.048-13.913L2094.5,93.5
	C2094.5,93.5,2070.5,128.5,1971.42,174.943z"/>
</svg>
