<?xml version="1.0" encoding="utf-8"?>
<!-- Generator: Adobe Illustrator 17.0.0, SVG Export Plug-In . SVG Version: 6.00 Build 0)  -->
<!DOCTYPE svg PUBLIC "-//W3C//DTD SVG 1.1//EN" "http://www.w3.org/Graphics/SVG/1.1/DTD/svg11.dtd">
<svg version="1.1" id="Layer_1" xmlns="http://www.w3.org/2000/svg" xmlns:xlink="http://www.w3.org/1999/xlink" x="0px" y="0px"
	 width="1000px" height="750px" viewBox="0 0 1000 750" enable-background="new 0 0 1000 750" xml:space="preserve">
<g>
	<path d="M553.934,406.869c-6.219-3.752-15.102-7.216-26.182-10.385v74.655c4.231-0.708,8.154-1.66,11.625-2.86
		c18.998-6.665,28.491-18.966,28.491-36.993C567.874,420.783,563.243,412.648,553.934,406.869z"/>
	<path d="M434.682,286.168c0,11.408,5.169,19.936,15.489,25.532c4.402,2.473,12.051,5.209,22.869,8.246v-71.283
		c-8.732,1.706-16.42,4.435-22.626,8.587C439.917,264.125,434.682,273.828,434.682,286.168z"/>
	<path d="M771.648,130.914c-75.213-74.819-196.834-74.524-271.653,0.728c-74.819-75.252-196.432-75.548-271.646-0.728
		c-75.219,74.793-76.964,195.402,5.747,278.128C326.431,501.33,474.148,649.125,499.982,675
		c25.873-25.873,173.563-173.663,265.898-265.959C848.632,326.316,846.861,205.7,771.648,130.914z M598.359,498.818
		c-17.745,15.207-41.329,24.306-70.608,27.5v32.079h-54.692v-32.453c-28.058-3.536-51.124-12.432-69.145-26.641
		c-24.05-18.985-36.055-45.023-36.055-78.185h63.568c2.034,14.57,6.114,25.46,12.136,32.676
		c6.809,8.062,16.656,13.612,29.482,16.794v-86.701c-32.735-7.347-55.355-15.377-67.8-23.958
		c-21.472-14.695-32.23-37.715-32.23-68.981c0-28.57,10.509-52.226,31.568-71.145c16.604-14.957,39.492-23.886,68.469-26.995v-28.49
		c0-0.052-0.02-0.052-0.02-0.052l54.719,0.098v29.856c21.144,3.884,39.965,11.782,56.444,23.958
		c24.03,17.857,36.58,43.645,37.78,77.522h-64.021c-1.207-19.136-9.755-32.768-25.742-40.837c-1.391-0.722-2.939-1.233-4.467-1.837
		v80.212l20.704,4.874c24.516,5.76,42.897,13.494,55.145,23.099c18.998,15.036,28.524,36.744,28.524,65.136
		C632.138,455.421,620.835,479.662,598.359,498.818z"/>
</g>
</svg>
