<?xml version="1.0" encoding="utf-8"?>
<!-- Generator: Adobe Illustrator 19.2.1, SVG Export Plug-In . SVG Version: 6.00 Build 0)  -->
<svg version="1.1" id="Layer_3" xmlns="http://www.w3.org/2000/svg" xmlns:xlink="http://www.w3.org/1999/xlink" x="0px" y="0px"
	 viewBox="0 0 95 95" style="enable-background:new 0 0 95 95;" xml:space="preserve">
<g>
	<path d="M86.5,14.1c-1.4-1.4-3.2-2.2-5.2-2.2H13.5c-2,0-3.8,0.7-5.2,2.2c-1.4,1.4-2.2,3.2-2.2,5.2v50.1c0,2,0.7,3.8,2.2,5.2
		c1.4,1.4,3.2,2.2,5.2,2.2h67.8c2,0,3.8-0.7,5.2-2.2c1.4-1.4,2.2-3.2,2.2-5.2V19.3C88.7,17.3,88,15.6,86.5,14.1z M82.8,69.4
		c0,0.4-0.1,0.7-0.4,1c-0.3,0.3-0.6,0.4-1,0.4H13.5c-0.4,0-0.7-0.1-1-0.4c-0.3-0.3-0.4-0.6-0.4-1V34.1c1,1.1,2,2.1,3.2,3
		c8.2,6.3,14.8,11.5,19.6,15.6c1.6,1.3,2.8,2.3,3.8,3.1c1,0.7,2.3,1.5,4,2.2c1.7,0.8,3.2,1.1,4.7,1.1h0h0c1.5,0,3-0.4,4.7-1.1
		c1.7-0.8,3-1.5,4-2.2c1-0.7,2.3-1.8,3.8-3.1c4.9-4.1,11.4-9.2,19.6-15.6c1.1-0.9,2.2-1.9,3.2-3V69.4L82.8,69.4z M82.8,20.5V21
		c0,1.8-0.7,3.8-2.1,6.1c-1.4,2.2-3,4-4.6,5.3C70.1,37.1,64,42,57.6,47c-0.2,0.2-0.7,0.6-1.6,1.4c-0.9,0.8-1.6,1.3-2.1,1.7
		c-0.5,0.4-1.2,0.9-2,1.5c-0.8,0.6-1.6,1-2.3,1.3c-0.7,0.3-1.4,0.4-2,0.4h0h0c-0.6,0-1.3-0.1-2-0.4c-0.7-0.3-1.5-0.7-2.3-1.3
		c-0.8-0.6-1.5-1.1-2-1.5c-0.5-0.4-1.2-1-2.1-1.7c-0.9-0.8-1.4-1.2-1.6-1.4c-6.4-5.1-12.5-9.9-18.5-14.6c-4.5-3.6-6.8-7.9-6.8-13.1
		c0-0.4,0.1-0.7,0.4-1c0.3-0.3,0.6-0.4,1-0.4h67.8C81.6,18,81.8,18,82,18c0.2-0.1,0.3,0.1,0.4,0.3c0.1,0.3,0.2,0.4,0.3,0.4
		c0.1,0,0.1,0.2,0.1,0.6c0,0.4,0,0.6,0,0.6L82.8,20.5L82.8,20.5z"/>
</g>
</svg>
