<?xml version="1.0" encoding="utf-8"?>
<!-- Generator: Adobe Illustrator 19.2.1, SVG Export Plug-In . SVG Version: 6.00 Build 0)  -->
<svg version="1.1" id="Layer_3" xmlns="http://www.w3.org/2000/svg" xmlns:xlink="http://www.w3.org/1999/xlink" x="0px" y="0px"
	 viewBox="0 0 95 95" style="enable-background:new 0 0 95 95;" xml:space="preserve">
<style type="text/css">
	.st0{fill:#FFFFFF;}
	.st1{fill:none;stroke:#000000;stroke-width:5;stroke-linecap:round;stroke-miterlimit:10;}
</style>
<path class="st0" d="M13.1,47.5"/>
<path class="st0" d="M27.1,47.5"/>
<path d="M55.7,52.6c-0.1,0-0.2,0-0.2,0c-1.8-0.2-1.9-2-2-4.1c-0.1-1.3-0.2-3.2-0.6-5.4c-0.2-0.7-0.6-1.6-1.1-2.5
	c-0.5-1-1.1-2.1-1.4-3.3c-1-0.2-2-0.3-3-0.4C41.1,36,34,35.1,29.7,28.6c-4.3-6.6-5.5-18.4-5.5-18.9c-0.1-0.4,0.1-0.8,0.4-1
	c0.3-0.3,0.7-0.4,1.1-0.4c0.6,0.1,14.9,2.2,20.4,8.3c4.4,4.9,6.2,9.9,6.7,18.8c0.1,1.3,0.8,2.6,1.5,4c0.6,1.1,1.1,2.2,1.3,3.2
	c0.5,2.4,0.6,4.3,0.7,5.7c0,0.2,0,0.4,0.1,0.5c0.1-0.1,0.1-0.2,0.1-0.3c0.7-1.7,1.8-4.2,4.2-6.4c0.9-0.8,1.7-1.4,2.5-1.9
	c-0.5-4.3,0.9-8.6,3.7-11.8c3.1-3.5,7.1-4.7,8.7-5c2.8-0.6,5-0.5,5.1-0.5c0.5,0.1,0.9,0.3,1.1,0.8c0.1,0.3,2.5,6.2-4.3,13.8
	c-2.4,2.6-5.1,3.1-7.7,3.5c-2.5,0.4-4.9,0.7-7.4,3c-2,1.9-3,4-3.6,5.5C57.8,51.2,57.2,52.6,55.7,52.6z M79.4,25.6
	c-0.8,0-2.1,0.1-3.5,0.4c-1,0.2-4.6,1.2-7.3,4.2c-2.8,3.2-3.3,6.7-3.2,9.1c1.3-0.4,2.5-0.6,3.7-0.8c2.5-0.4,4.4-0.7,6.2-2.6
	C79.7,31.1,79.7,27.2,79.4,25.6z M26.8,11.1c0.5,3.5,1.9,11.4,4.9,16.1c3.6,5.5,9.6,6.4,15.9,7.2c0.8,0.1,1.5,0.2,2.3,0.3
	c-0.6-7.8-2.1-12-6-16.3C40.2,14,30.7,11.8,26.8,11.1z"/>
<path d="M25.4,78.4H14.7c-1.8,0-3.3-1.5-3.3-3.3V49.5c0-1.8,1.5-3.3,3.3-3.3h10.7c1.8,0,3.3,1.5,3.3,3.3v25.6c0,0.4-0.1,1.5-1,2.3
	C27.1,78,26.2,78.4,25.4,78.4z M14.7,48.8c-0.4,0-0.8,0.4-0.8,0.8v25.6c0,0.4,0.4,0.8,0.8,0.8h10.7c0.2,0,0.4-0.1,0.6-0.2
	c0.2-0.2,0.2-0.5,0.2-0.6V49.5c0-0.4-0.4-0.8-0.8-0.8H14.7z"/>
<path class="st1" d="M43.9,57.2"/>
<path d="M55.3,81.6c-0.2,0-0.5,0-0.7,0c-6.4-0.1-12-2.7-17.3-5.2c-3.2-1.5-6.6-3.1-10-4c-0.7-0.2-1.1-0.9-0.9-1.6
	c0.2-0.7,0.9-1.1,1.6-0.9c3.6,1,7,2.6,10.4,4.2c5.4,2.5,10.5,4.9,16.3,4.9c3.3,0.1,3.5-0.1,9-2.5l0.5-0.2c9.7-4.3,15.4-9.5,18.9-13
	c0.1-0.1,0.3-0.3,0.2-0.9c-0.3-1.2-1.8-2.7-3.7-3.3c-2.1-0.6-3.9,0.9-6.9,3.5c-0.7,0.6-1.4,1.2-2.1,1.8c-3.5,3-7,3.4-15.9,3.1
	c-1.2-0.1-2.2,0.1-3.5,0.2c-2.4,0.2-5.2,0.4-9.8-0.2c-0.7-0.1-1.2-0.7-1.1-1.4c0.1-0.7,0.7-1.2,1.4-1.1c4.3,0.6,7,0.4,9.3,0.2
	c1.3-0.1,2.5-0.2,3.8-0.2c8.7,0.3,11.5-0.3,14.2-2.5c0.7-0.6,1.4-1.2,2-1.8c3.1-2.7,5.7-5.1,9.3-4.1c2.6,0.7,4.9,2.9,5.4,5.1
	c0.4,1.3,0.1,2.5-0.8,3.4c-3.7,3.7-9.7,9-19.7,13.5l-0.5,0.2C59.4,81.2,58.5,81.6,55.3,81.6z"/>
<path d="M64,66.8c-0.4,0-0.7-0.2-1-0.5c-0.3-0.3-0.4-0.6-0.6-1c-0.6-1.4-1.6-3.7-5.1-3.9c-1.6-0.1-3,0.1-4.1,0.3
	c-2.2,0.4-4.2,0.6-7-1.3c-0.5-0.3-1.1-0.7-1.7-1c-1.3-0.8-2.6-1.6-3.6-2.3c-2-1.7-6.3-2.3-13.5-2.7c-0.7-0.1-1.2-0.7-1.2-1.4
	c0.1-0.7,0.7-1.2,1.4-1.2c7.9,0.5,12.4,1.2,15,3.4c0.7,0.6,2,1.4,3.2,2.1c0.7,0.4,1.3,0.8,1.8,1.1c2,1.3,3.2,1.2,5.2,0.9
	c1.2-0.2,2.6-0.4,4.6-0.3c5.1,0.3,6.7,3.9,7.4,5.4c0.1,0.2,0.2,0.4,0.2,0.5c0.4,0.5,0.4,1.3-0.2,1.7C64.7,66.7,64.4,66.8,64,66.8z
	 M65,64.8L65,64.8L65,64.8z"/>
</svg>
