<?xml version="1.0" encoding="utf-8"?>
<!-- Generator: Adobe Illustrator 19.2.1, SVG Export Plug-In . SVG Version: 6.00 Build 0)  -->
<svg version="1.1" id="Layer_3" xmlns="http://www.w3.org/2000/svg" xmlns:xlink="http://www.w3.org/1999/xlink" x="0px" y="0px"
	 viewBox="0 0 95 95" style="enable-background:new 0 0 95 95;" xml:space="preserve">
<g>
	<g>
		<path d="M77.1,28.6c-3.2-5.4-7.5-9.7-12.9-12.9C58.9,12.6,52.9,11,46.5,11c-6.4,0-12.3,1.6-17.7,4.7c-5.4,3.2-9.7,7.5-12.9,12.9
			c-3.2,5.4-4.7,11.3-4.7,17.7c0,6.4,1.6,12.3,4.7,17.7c3.2,5.4,7.5,9.7,12.9,12.9c5.4,3.2,11.3,4.7,17.7,4.7
			c6.4,0,12.3-1.6,17.7-4.7c5.4-3.2,9.7-7.5,12.9-12.9c3.2-5.4,4.7-11.3,4.7-17.7C81.9,40,80.3,34.1,77.1,28.6z M73.6,57.8
			c-1.6,3.6-3.7,6.8-6.3,9.4c-2.6,2.6-5.8,4.7-9.4,6.3c-3.6,1.6-7.5,2.3-11.4,2.3s-7.8-0.8-11.4-2.3c-3.6-1.6-6.8-3.7-9.4-6.3
			c-2.6-2.6-4.7-5.8-6.3-9.4c-1.6-3.6-2.3-7.5-2.3-11.4c0-4,0.8-7.8,2.3-11.4c1.6-3.6,3.7-6.8,6.3-9.4c2.6-2.6,5.8-4.7,9.4-6.3
			c3.6-1.6,7.5-2.3,11.4-2.3c4,0,7.8,0.8,11.4,2.3c3.6,1.6,6.8,3.7,9.4,6.3c2.6,2.6,4.7,5.8,6.3,9.4c1.6,3.6,2.3,7.5,2.3,11.4
			C76,50.4,75.2,54.2,73.6,57.8z"/>
		<path d="M57,52.7c-3.1-2.3-6.6-3.4-10.5-3.4c-3.9,0-7.4,1.1-10.5,3.4c-3.1,2.3-5.2,5.3-6.4,9c-0.2,0.8-0.2,1.5,0.2,2.2
			c0.4,0.7,1,1.2,1.7,1.5c0.8,0.2,1.5,0.2,2.2-0.2c0.7-0.4,1.2-1,1.4-1.7c0.8-2.5,2.2-4.4,4.3-6c2.1-1.5,4.4-2.3,7-2.3
			c2.6,0,4.9,0.8,7,2.3c2.1,1.5,3.5,3.5,4.3,6c0.2,0.8,0.7,1.4,1.5,1.7c0.7,0.4,1.5,0.4,2.3,0.2c0.8-0.2,1.3-0.7,1.7-1.5
			c0.4-0.7,0.4-1.5,0.2-2.2C62.2,58,60.1,55,57,52.7z"/>
		<path d="M34.7,40.5c1.6,0,3-0.6,4.2-1.7c1.2-1.2,1.7-2.5,1.7-4.2c0-1.6-0.6-3-1.7-4.2s-2.5-1.7-4.2-1.7c-1.6,0-3,0.6-4.2,1.7
			c-1.2,1.2-1.7,2.5-1.7,4.2c0,1.6,0.6,3,1.7,4.2C31.7,39.9,33.1,40.5,34.7,40.5z"/>
		<path d="M58.3,28.7c-1.6,0-3,0.6-4.2,1.7c-1.2,1.2-1.7,2.5-1.7,4.2c0,1.6,0.6,3,1.7,4.2c1.2,1.2,2.5,1.7,4.2,1.7
			c1.6,0,3-0.6,4.2-1.7c1.2-1.2,1.7-2.5,1.7-4.2c0-1.6-0.6-3-1.7-4.2S59.9,28.7,58.3,28.7z"/>
	</g>
</g>
</svg>
