<?xml version="1.0" encoding="utf-8"?>
<!-- Generator: Adobe Illustrator 19.2.1, SVG Export Plug-In . SVG Version: 6.00 Build 0)  -->
<svg version="1.1" id="Layer_3" xmlns="http://www.w3.org/2000/svg" xmlns:xlink="http://www.w3.org/1999/xlink" x="0px" y="0px"
	 viewBox="0 0 95 95" style="enable-background:new 0 0 95 95;" xml:space="preserve">
<path d="M77.4,29.9h-56c-0.5,0-0.9-0.4-1.1-0.9c-0.1-0.5,0.1-1,0.5-1.3l28-15.6c0.4-0.2,0.8-0.2,1.1,0l28,15.6
	c0.5,0.3,0.7,0.8,0.5,1.3S77.9,29.9,77.4,29.9z M25.7,27.6H73L49.3,14.5L25.7,27.6z"/>
<path d="M35.1,61.7H24.9c-0.6,0-1.1-0.5-1.1-1.1V35.5c0-0.6,0.5-1.1,1.1-1.1h10.2c0.6,0,1.1,0.5,1.1,1.1v25.1
	C36.3,61.2,35.7,61.7,35.1,61.7z M26.1,59.4H34V36.6h-7.9V59.4z"/>
<path d="M54,61.7H43.8c-0.6,0-1.1-0.5-1.1-1.1V35.5c0-0.6,0.5-1.1,1.1-1.1H54c0.6,0,1.1,0.5,1.1,1.1v25.1
	C55.1,61.2,54.6,61.7,54,61.7z M44.9,59.4h7.9V36.6h-7.9V59.4z"/>
<path d="M72.8,61.7H62.7c-0.6,0-1.1-0.5-1.1-1.1V35.5c0-0.6,0.5-1.1,1.1-1.1h10.2c0.6,0,1.1,0.5,1.1,1.1v25.1
	C73.9,61.2,73.4,61.7,72.8,61.7z M63.8,59.4h7.9V36.6h-7.9V59.4z"/>
<path d="M79.6,82.9H18.4c-0.6,0-1.1-0.5-1.1-1.1v-7.2c0-0.6,0.5-1.1,1.1-1.1h61.2c0.6,0,1.1,0.5,1.1,1.1v7.2
	C80.7,82.4,80.2,82.9,79.6,82.9z M19.6,80.6h58.9v-5H19.6V80.6z"/>
<path d="M76.5,75.7c-0.6,0-1.1-0.5-1.1-1.1v-5.6H23.6v5.6c0,0.6-0.5,1.1-1.1,1.1c-0.6,0-1.1-0.5-1.1-1.1v-6.8c0-0.6,0.5-1.1,1.1-1.1
	h53.9c0.6,0,1.1,0.5,1.1,1.1v6.8C77.5,75.2,77,75.7,76.5,75.7z"/>
</svg>
