<?xml version="1.0" encoding="utf-8"?>
<!-- Generator: Adobe Illustrator 19.2.1, SVG Export Plug-In . SVG Version: 6.00 Build 0)  -->
<svg version="1.1" id="Layer_3" xmlns="http://www.w3.org/2000/svg" xmlns:xlink="http://www.w3.org/1999/xlink" x="0px" y="0px"
	 viewBox="0 0 95 95" style="enable-background:new 0 0 95 95;" xml:space="preserve">
<g id="Forma_1_2_">
	<g>
		<path d="M80,21.3c-3.4-3.4-8.2-5.1-14.3-5.1c-1.7,0-3.4,0.3-5.2,0.9c-1.8,0.6-3.4,1.4-4.9,2.4c-1.5,1-2.8,1.9-3.9,2.8
			c-1.1,0.9-2.1,1.8-3.1,2.8c-1-1-2-1.9-3.1-2.8c-1.1-0.9-2.4-1.8-3.9-2.8c-1.5-1-3.1-1.8-4.9-2.4c-1.8-0.6-3.5-0.9-5.2-0.9
			c-6.1,0-10.8,1.7-14.3,5.1c-3.4,3.4-5.2,8-5.2,14c0,1.8,0.3,3.7,1,5.6c0.6,1.9,1.4,3.6,2.2,4.9c0.8,1.4,1.7,2.7,2.8,4
			c1,1.3,1.8,2.2,2.3,2.7c0.5,0.5,0.8,0.8,1.1,1.1l25.4,24.5c0.5,0.5,1.1,0.7,1.8,0.7s1.3-0.2,1.8-0.7l25.4-24.4
			c6.2-6.2,9.3-12.3,9.3-18.3C85.1,29.3,83.4,24.6,80,21.3z M72.3,49.8L48.6,72.6L25,49.7c-5.1-5.1-7.6-9.9-7.6-14.5
			c0-2.2,0.3-4.1,0.9-5.8c0.6-1.7,1.3-3,2.2-4c0.9-1,2-1.8,3.3-2.4c1.3-0.6,2.6-1,3.8-1.3c1.2-0.2,2.6-0.3,4-0.3
			c1.4,0,2.9,0.3,4.6,1c1.6,0.7,3.1,1.6,4.5,2.6c1.4,1,2.5,2,3.5,2.9c1,0.9,1.8,1.7,2.4,2.5c0.5,0.6,1.2,0.9,2,0.9
			c0.8,0,1.5-0.3,2-0.9c0.7-0.8,1.5-1.6,2.4-2.5c1-0.9,2.2-1.9,3.5-2.9c1.4-1,2.9-1.9,4.5-2.6c1.6-0.7,3.2-1,4.6-1
			c1.4,0,2.7,0.1,4,0.3c1.2,0.2,2.5,0.6,3.8,1.3c1.3,0.6,2.4,1.4,3.3,2.4c0.9,1,1.7,2.3,2.2,4c0.6,1.7,0.9,3.6,0.9,5.8
			C79.9,39.8,77.4,44.7,72.3,49.8z"/>
	</g>
</g>
</svg>
