<?xml version="1.0" encoding="utf-8"?>
<!-- Generator: Adobe Illustrator 19.2.1, SVG Export Plug-In . SVG Version: 6.00 Build 0)  -->
<svg version="1.1" id="Layer_3" xmlns="http://www.w3.org/2000/svg" xmlns:xlink="http://www.w3.org/1999/xlink" x="0px" y="0px"
	 viewBox="0 0 95 95" style="enable-background:new 0 0 95 95;" xml:space="preserve">
<g>
	<path d="M88.4,45.5L75.3,15.2c-0.4-0.9-1-1.7-2-2.3c-1-0.6-1.9-0.9-2.9-0.9H24.7c-1,0-1.9,0.3-2.9,0.9c-1,0.6-1.6,1.4-2,2.3
		L6.7,45.5c-0.9,2.2-1.4,4.5-1.4,6.8v26.5c0,1,0.3,1.8,1,2.5c0.7,0.7,1.5,1,2.5,1h77.4c1,0,1.8-0.3,2.5-1c0.7-0.7,1-1.5,1-2.5V52.3
		C89.7,50,89.3,47.8,88.4,45.5z M61.6,50.7l-5.2,10.6H38.7l-5.2-10.6H16.2c0-0.1,0.1-0.2,0.1-0.4c0.1-0.2,0.1-0.4,0.1-0.4l11.7-27.3
		H67l11.6,27.3c0,0.1,0.1,0.3,0.1,0.4c0.1,0.2,0.1,0.3,0.1,0.4H61.6z"/>
</g>
</svg>
