<?xml version="1.0" encoding="utf-8"?>
<!-- Generator: Adobe Illustrator 17.0.0, SVG Export Plug-In . SVG Version: 6.00 Build 0)  -->
<!DOCTYPE svg PUBLIC "-//W3C//DTD SVG 1.1//EN" "http://www.w3.org/Graphics/SVG/1.1/DTD/svg11.dtd">
<svg version="1.1" id="Layer_1" xmlns="http://www.w3.org/2000/svg" xmlns:xlink="http://www.w3.org/1999/xlink" x="0px" y="0px"
	 width="1000px" height="750px" viewBox="0 0 1000 750" enable-background="new 0 0 1000 750" xml:space="preserve">
<g>
	<g>
		<path d="M264.582,248.833h-51.228c-31.987,0-58.009-26.022-58.009-58.009v-51.224c0-31.987,26.022-58.013,58.009-58.013h51.228
			c31.987,0,58.009,26.026,58.009,58.013v51.224C322.59,222.812,296.569,248.833,264.582,248.833z M225.259,178.919h27.417v-27.417
			h-27.417V178.919z"/>
	</g>
	<g>
		<path d="M809.698,200.17H399.882c-19.305,0-34.957-15.652-34.957-34.957s15.652-34.957,34.957-34.957h409.816
			c19.305,0,34.957,15.652,34.957,34.957S829.003,200.17,809.698,200.17z"/>
	</g>
	<g>
		<path d="M264.582,458.627h-51.228c-31.987,0-58.009-26.022-58.009-58.009V349.39c0-31.987,26.022-58.013,58.009-58.013h51.228
			c31.987,0,58.009,26.026,58.009,58.013v51.228C322.59,432.605,296.569,458.627,264.582,458.627z M225.259,388.713h27.417v-27.421
			h-27.417V388.713z"/>
	</g>
	<g>
		<path d="M809.698,409.964H399.882c-19.305,0-34.957-15.652-34.957-34.961c0-19.305,15.652-34.957,34.957-34.957h409.816
			c19.305,0,34.957,15.652,34.957,34.957C844.655,394.311,829.003,409.964,809.698,409.964z"/>
	</g>
	<g>
		<path d="M264.582,668.412h-51.228c-31.987,0-58.009-26.022-58.009-58.009V559.18c0-31.987,26.022-58.009,58.009-58.009h51.228
			c31.987,0,58.009,26.022,58.009,58.009v51.224C322.59,642.391,296.569,668.412,264.582,668.412z M225.259,598.498h27.417v-27.413
			h-27.417V598.498z"/>
	</g>
	<g>
		<path d="M809.698,619.749H399.882c-19.305,0-34.957-15.652-34.957-34.957c0-19.305,15.652-34.957,34.957-34.957h409.816
			c19.305,0,34.957,15.652,34.957,34.957C844.655,604.096,829.003,619.749,809.698,619.749z"/>
	</g>
</g>
</svg>
