<?xml version="1.0" encoding="utf-8"?>
<!-- Generator: Adobe Illustrator 18.0.0, SVG Export Plug-In . SVG Version: 6.00 Build 0)  -->
<!DOCTYPE svg PUBLIC "-//W3C//DTD SVG 1.1//EN" "http://www.w3.org/Graphics/SVG/1.1/DTD/svg11.dtd">
<svg version="1.1" id="Layer_1" xmlns="http://www.w3.org/2000/svg" xmlns:xlink="http://www.w3.org/1999/xlink" x="0px" y="0px"
	 viewBox="0 0 1000 750" enable-background="new 0 0 1000 750" xml:space="preserve">
<path d="M614.2,83H358.8c-30.1,0-54.7,24.6-54.7,54.7v474.5c0,30.1,24.6,54.7,54.7,54.7h255.5c30.1,0,54.7-24.6,54.7-54.7V137.8
	C669,107.6,644.4,83,614.2,83z M413.5,110.4h146v18.2h-146V110.4z M486.5,630.5c-20.2,0-36.5-16.3-36.5-36.5s16.3-36.5,36.5-36.5
	S523,573.8,523,594S506.7,630.5,486.5,630.5z M632.5,521h-292V156h292V521z"/>
</svg>
