<?xml version="1.0" encoding="utf-8"?>
<!-- Generator: Adobe Illustrator 19.2.1, SVG Export Plug-In . SVG Version: 6.00 Build 0)  -->
<svg version="1.1" id="Layer_3" xmlns="http://www.w3.org/2000/svg" xmlns:xlink="http://www.w3.org/1999/xlink" x="0px" y="0px"
	 viewBox="0 0 95 95" style="enable-background:new 0 0 95 95;" xml:space="preserve">
<style type="text/css">
	.st0{fill:#231F20;stroke:#FFFFFF;stroke-width:3;stroke-miterlimit:10;}
	.st1{fill:#231F20;stroke:#FFFFFF;stroke-miterlimit:10;}
</style>
<path class="st0" d="M66.6,15c1.5,0.3,3.1,0.5,4.5,1c7.4,2.7,12.7,7.5,15,15.2c1.3,4.4,0.6,8.7-1.3,12.8c-1.3,2.6-2.8,5.2-4.4,7.7
	c-0.6,0.9-0.7,1.8-0.8,2.8c-0.3,3.1-2.5,5.1-5.4,5c-0.4,0-0.9-0.1-1.4-0.2c-0.1,2-0.3,3.9-1.7,5.4c-1.5,1.5-3.3,1.6-5.3,1.3
	c-0.1,6-2.9,7.6-7.8,7.6c0.1,2.3-1.2,3.8-2.8,5.3c-1.3,1.3-2.5,2.6-3.8,3.8c-1.6,1.6-3.6,2.2-5.8,1.6c-2.2-0.6-3.6-2.1-4-4.4
	c-0.2-1.1,0-2.3,0.1-3.4c-5.3,1.2-8.4-3.4-7.2-7.6c-2.4,0.6-4.5,0.3-6.2-1.5c-1.6-1.8-2-3.9-1.1-6.1c-1,0-2,0.1-3,0
	c-3-0.4-5.2-3.5-4.6-6.6c0.1-0.6,0-0.9-0.4-1.2c-3.4-3.1-5.9-6.9-7.9-11c-0.7-1.5-1-3.2-1.5-4.8c0-0.1-0.1-0.2-0.1-0.3
	c0-1.1,0-2.2,0-3.3c0.3-1.2,0.4-2.4,0.8-3.5c2.7-7.8,8.2-12.5,15.9-14.9c1.1-0.3,2.2-0.5,3.3-0.7c1.2,0,2.4,0,3.6,0
	c0.4,0.1,0.9,0.2,1.3,0.2c3.3,0.5,6.2,2.1,9,3.8c1.6,1,3.2,2.1,4.7,3.2c0.1-0.1,0.2-0.1,0.2-0.2c3.4-3.1,7.2-5.3,11.6-6.5
	c1-0.3,2-0.4,3.1-0.6C64.4,15,65.5,15,66.6,15z"/>
<path class="st0" d="M47.6,23.1c-2.1-1.4-4.1-2.8-6.1-4.1c-3.7-2.4-7.8-3.6-12.2-2.9c-7.2,1.1-12.7,4.9-16.3,11.1
	c-2.8,4.8-3.4,9.9-0.8,15c1.4,2.7,3.2,5.3,5,7.8c0.8,1.2,2,2.2,3,3.2c0.3-0.4,0.5-0.8,0.8-1.1c1.8-1.8,3.5-3.7,5.4-5.5
	c1.6-1.5,3.6-2.1,5.7-1.4c2.1,0.7,3.5,2.2,3.9,4.3c0.2,1.1,0,2.2,0,3.4c2-0.5,4.1-0.1,5.7,1.5c1.6,1.7,1.9,3.8,1.3,6
	c2.2-0.7,4.1-0.4,5.8,1.1c2,1.8,2.4,4.1,1.5,6.7c3.7-1,6.6,1,7.4,3.7c0.1,0.2,0.4,0.5,0.6,0.5c1.8,0.2,3.6,0,5-1.4
	c1.3-1.3,1.5-3,1.4-4.7c0-0.4-0.2-0.8-0.5-1.1c-4-3.8-8-7.5-11.9-11.3c-1.5-1.4-2.9-2.8-4.4-4.2c0.3-0.2,0.5-0.4,0.7-0.6
	c1.5,1.5,3,2.9,4.5,4.3c3.8,3.5,7.5,7.1,11.3,10.6c0.5,0.5,1.2,0.9,1.8,1c1.7,0.3,3.3,0.2,4.5-1.4c1-1.3,1.1-2.8,1.1-4.4
	c0-0.2-0.3-0.5-0.4-0.7c-3.5-3.5-7.1-7-10.6-10.5c-1.8-1.8-3.6-3.8-5.4-5.7c0,0,0.2-0.2,0.5-0.4c5.2,5.1,10.4,10.2,15.5,15.4
	c1.7,1.7,4.8,1.5,6.2-0.3c0.8-1,1-2.1,1.1-3.3c0.1-1-0.2-1.6-0.9-2.3C72,45.6,66.3,39.8,60.5,34c-1.6-1.6-3.2-3.1-4.6-4.5
	c-1.8,1.9-3.5,4-5.5,5.8c-3.1,2.9-6.7,4.9-11.2,4.6c-2.3-0.1-4.1-1-5.6-2.7C38.2,32.5,42.9,27.8,47.6,23.1z"/>
<path class="st1" d="M79.3,51.6c0.1-0.2,0.3-0.2,0.3-0.4c1.5-2.5,3.1-5,4.4-7.6c1.9-3.8,2.4-7.8,1.4-11.9c-1.3-5-4.4-8.8-8.5-11.7
	c-4.2-3-8.8-4.5-13.9-3.9c-5.2,0.6-9.6,3.1-13.3,6.5c-4.9,4.5-9.4,9.3-14.1,14c-0.2,0.2-0.3,0.4-0.6,0.7c1.1,0.5,2,1.2,3.1,1.4
	c2.3,0.6,4.6,0.1,6.8-0.9c3.5-1.6,6.2-4.2,8.7-7c0.8-0.9,1.6-2,2.5-3C63.7,35.8,71.5,43.7,79.3,51.6z"/>
<path class="st0" d="M25.4,60.6c1.4,0.1,2.6-0.6,3.6-1.5c1.6-1.6,3.2-3.3,4.9-4.9c1.8-1.9,1.9-4.8,0.1-6.6c-1.8-1.9-4.8-2.1-6.7-0.3
	c-1.9,1.8-3.7,3.7-5.5,5.6c-1.4,1.5-1.5,3.3-0.7,5.1C21.9,59.6,23.4,60.5,25.4,60.6z"/>
<path class="st0" d="M49.8,66c0-2.1-1.1-3.7-2.9-4.5c-1.8-0.8-3.8-0.4-5.2,1.1c-1.7,1.7-3.4,3.4-5.1,5.1c-1.8,1.8-1.8,4.8,0,6.7
	c1.8,1.9,4.8,2,6.7,0.2c1.8-1.7,3.5-3.5,5.2-5.2C49.4,68.4,49.9,67.2,49.8,66z"/>
<path class="st0" d="M27.9,63.5c0,2.1,1.1,3.8,3,4.6c1.8,0.7,3.7,0.3,5.2-1.1c1.6-1.6,3.3-3.3,4.9-4.9c2-2,2.1-4.9,0.2-6.9
	c-1.9-2-4.9-1.9-6.9,0.1c-1.6,1.6-3.2,3.2-4.8,4.8C28.4,61.1,27.8,62.2,27.9,63.5z"/>
<path class="st0" d="M47.8,83.5c0.9,0,2-0.4,2.8-1.3c1.7-1.7,3.4-3.4,5.1-5.2c1-1,1.5-2.2,1.4-3.5c-0.1-2-1-3.5-2.9-4.3
	c-1.9-0.8-3.7-0.5-5.2,0.9c-1.8,1.8-3.6,3.6-5.3,5.4c-1.3,1.3-1.5,3.5-0.7,5.2C43.8,82.6,45.7,83.7,47.8,83.5z"/>
</svg>
