<?xml version="1.0" encoding="utf-8"?>
<!-- Generator: Adobe Illustrator 19.2.1, SVG Export Plug-In . SVG Version: 6.00 Build 0)  -->
<svg version="1.1" id="Layer_1" xmlns="http://www.w3.org/2000/svg" xmlns:xlink="http://www.w3.org/1999/xlink" x="0px" y="0px"
	 viewBox="0 0 1792 1138.6" style="enable-background:new 0 0 1792 1138.6;" xml:space="preserve">
<path d="M1220,488c135,0,243.2-109,243.2-244S1355,0,1220,0S976,109,976,244S1085,488,1220,488z M569.3,488
	c135,0,243.2-109,243.2-244S704.3,0,569.3,0s-244,109-244,244S434.3,488,569.3,488z M569.3,650.7C379.8,650.7,0,745.8,0,935.3v203.3
	h1138.6V935.3C1138.6,745.8,758.8,650.7,569.3,650.7z M1220,650.7c-23.6,0-50.4,1.6-78.9,4.1c94.3,68.3,160.2,160.2,160.2,280.6
	v203.3h488V935.3C1789.3,745.8,1409.5,650.7,1220,650.7z"/>
</svg>
