<?xml version="1.0" encoding="utf-8"?>
<!-- Generator: Adobe Illustrator 19.2.1, SVG Export Plug-In . SVG Version: 6.00 Build 0)  -->
<svg version="1.1" id="Layer_3" xmlns="http://www.w3.org/2000/svg" xmlns:xlink="http://www.w3.org/1999/xlink" x="0px" y="0px"
	 viewBox="0 0 95 95" style="enable-background:new 0 0 95 95;" xml:space="preserve">
<g>
	<path d="M87.3,43.8c-4.2-6.8-9.8-12.3-16.9-16.5c-7.1-4.2-14.5-6.2-22.4-6.2s-15.3,2.1-22.4,6.2C18.6,31.4,13,36.9,8.8,43.8
		c-0.6,1-0.9,2.1-0.9,3.1c0,1,0.3,2,0.9,3.1c4.2,6.8,9.8,12.3,16.9,16.5c7.1,4.2,14.5,6.2,22.4,6.2c7.9,0,15.3-2.1,22.4-6.2
		c7.1-4.1,12.7-9.6,16.9-16.5c0.6-1,0.9-2.1,0.9-3.1C88.2,45.9,87.9,44.8,87.3,43.8z M38.4,31.5c2.7-2.7,5.9-4,9.6-4
		c0.6,0,1.1,0.2,1.5,0.6c0.4,0.4,0.6,0.9,0.6,1.5c0,0.6-0.2,1.1-0.6,1.5c-0.4,0.4-0.9,0.6-1.5,0.6c-2.6,0-4.8,0.9-6.6,2.7
		c-1.8,1.8-2.7,4-2.7,6.6c0,0.6-0.2,1.1-0.6,1.5c-0.4,0.4-0.9,0.6-1.5,0.6c-0.6,0-1.1-0.2-1.5-0.6c-0.4-0.4-0.6-0.9-0.6-1.5
		C34.4,37.4,35.8,34.2,38.4,31.5z M67.5,61.5C61.5,65.1,55,67,48.1,67c-7,0-13.5-1.8-19.5-5.4c-6-3.6-11-8.5-15-14.6
		c4.5-7.1,10.2-12.3,17.1-15.8c-1.8,3.1-2.7,6.5-2.7,10.1c0,5.5,2,10.3,5.9,14.2s8.7,5.9,14.2,5.9c5.5,0,10.3-2,14.2-5.9
		s5.9-8.7,5.9-14.2c0-3.6-0.9-7-2.7-10.1c6.8,3.5,12.5,8.8,17.1,15.8C78.5,53,73.5,57.9,67.5,61.5z"/>
</g>
</svg>
