<?xml version="1.0" encoding="utf-8"?>
<!-- Generator: Adobe Illustrator 19.2.1, SVG Export Plug-In . SVG Version: 6.00 Build 0)  -->
<svg version="1.1" id="Layer_3" xmlns="http://www.w3.org/2000/svg" xmlns:xlink="http://www.w3.org/1999/xlink" x="0px" y="0px"
	 viewBox="0 0 95 95" style="enable-background:new 0 0 95 95;" xml:space="preserve">
<path d="M71.3,51.8h-2.8c-0.4,0-0.8,0.1-1,0.4c-0.3,0.3-0.4,0.6-0.4,1v14.2c0,2-0.7,3.6-2.1,5c-1.4,1.4-3.1,2.1-5,2.1H23
	c-2,0-3.6-0.7-5-2.1c-1.4-1.4-2.1-3.1-2.1-5v-37c0-2,0.7-3.6,2.1-5c1.4-1.4,3.1-2.1,5-2.1h24.3c0.4,0,0.8-0.1,1-0.4
	c0.3-0.3,0.4-0.6,0.4-1v-2.8c0-0.4-0.1-0.8-0.4-1c-0.3-0.3-0.6-0.4-1-0.4H23c-3.5,0-6.5,1.3-9,3.8c-2.5,2.5-3.8,5.5-3.8,9v37
	c0,3.5,1.3,6.5,3.8,9c2.5,2.5,5.5,3.8,9,3.8h37c3.5,0,6.5-1.3,9-3.8c2.5-2.5,3.8-5.5,3.8-9V53.3c0-0.4-0.1-0.8-0.4-1
	C72.1,52,71.7,51.8,71.3,51.8z"/>
<g>
	<g id="call-made">
		<polygon points="59.3,13.8 58.9,18.8 75.3,20.3 41.1,48.8 44.2,52.6 78.5,24.1 77,40.5 81.9,41 84.2,16.1 		"/>
	</g>
</g>
</svg>
