<?xml version="1.0" encoding="utf-8"?>
<!-- Generator: Adobe Illustrator 19.2.1, SVG Export Plug-In . SVG Version: 6.00 Build 0)  -->
<svg version="1.1" id="Layer_3" xmlns="http://www.w3.org/2000/svg" xmlns:xlink="http://www.w3.org/1999/xlink" x="0px" y="0px"
	 viewBox="0 0 95 95" style="enable-background:new 0 0 95 95;" xml:space="preserve">
<g>
	<path d="M86.8,36.3c0-1.2-0.9-1.9-2.7-2.2l-24-3.5L49.3,8.8c-0.6-1.3-1.4-2-2.3-2c-1,0-1.7,0.7-2.3,2L33.9,30.6l-24,3.5
		c-1.8,0.3-2.7,1-2.7,2.2c0,0.7,0.4,1.4,1.2,2.3l17.4,16.9l-4.1,23.9c-0.1,0.4-0.1,0.8-0.1,1c0,0.7,0.2,1.2,0.5,1.7
		c0.3,0.5,0.8,0.7,1.5,0.7c0.6,0,1.2-0.2,1.9-0.6L47,70.9l21.5,11.3c0.7,0.4,1.3,0.6,1.9,0.6c1.3,0,2-0.8,2-2.4c0-0.4,0-0.7,0-1
		l-4.1-23.9l17.4-16.9C86.4,37.8,86.8,37,86.8,36.3z M61.6,53.4L65,73.5L47,64l-18.1,9.5l3.5-20.1L17.7,39.2l20.2-3l9-18.3l9,18.3
		l20.2,3L61.6,53.4z"/>
</g>
</svg>
