<?xml version="1.0" encoding="utf-8"?>
<!-- Generator: Adobe Illustrator 17.0.0, SVG Export Plug-In . SVG Version: 6.00 Build 0)  -->
<!DOCTYPE svg PUBLIC "-//W3C//DTD SVG 1.1//EN" "http://www.w3.org/Graphics/SVG/1.1/DTD/svg11.dtd">
<svg version="1.1" id="Layer_1" xmlns="http://www.w3.org/2000/svg" xmlns:xlink="http://www.w3.org/1999/xlink" x="0px" y="0px"
	 width="1000px" height="750px" viewBox="0 0 1000 750" enable-background="new 0 0 1000 750" xml:space="preserve">
<g>
	<g>
		<path d="M799.317,354.002h-604.91c-29.063,0-52.706-23.643-52.706-52.706V127.709c0-29.063,23.643-52.709,52.706-52.709h604.91
			c29.063,0,52.706,23.647,52.706,52.709v173.586C852.023,330.359,828.38,354.002,799.317,354.002z M205.225,290.479H788.5V138.523
			H205.225V290.479z"/>
	</g>
	<g>
		<path d="M820.262,458.239H378.028c-17.54,0-31.761-14.221-31.761-31.761s14.221-31.761,31.761-31.761h442.233
			c17.54,0,31.761,14.221,31.761,31.761S837.802,458.239,820.262,458.239z"/>
	</g>
	<g>
		<path d="M820.262,552.791H378.028c-17.54,0-31.761-14.221-31.761-31.761c0-17.54,14.221-31.761,31.761-31.761h442.233
			c17.54,0,31.761,14.221,31.761,31.761C852.023,538.57,837.802,552.791,820.262,552.791z"/>
	</g>
	<g>
		<path d="M820.262,647.343H378.028c-17.54,0-31.761-14.221-31.761-31.761s14.221-31.761,31.761-31.761h442.233
			c17.54,0,31.761,14.221,31.761,31.761S837.802,647.343,820.262,647.343z"/>
	</g>
	<g>
		<path d="M274.703,599.552h-93.299c-17.54,0-31.761-14.221-31.761-31.761V428.835c0-17.54,14.221-31.761,31.761-31.761h93.299
			c17.54,0,31.761,14.221,31.761,31.761v138.956C306.464,585.331,292.243,599.552,274.703,599.552z M213.165,536.029h29.776v-75.433
			h-29.776V536.029z"/>
	</g>
</g>
</svg>
