<?xml version="1.0" encoding="utf-8"?>
<!-- Generator: Adobe Illustrator 19.2.1, SVG Export Plug-In . SVG Version: 6.00 Build 0)  -->
<svg version="1.1" id="Layer_3" xmlns="http://www.w3.org/2000/svg" xmlns:xlink="http://www.w3.org/1999/xlink" x="0px" y="0px"
	 viewBox="0 0 95 95" style="enable-background:new 0 0 95 95;" xml:space="preserve">
<g>
	<path d="M77,49.4c1.4-2.1,2-4.3,2-6.8c0-2.9-1.1-5.3-3.2-7.5C73.7,33,71.2,32,68.3,32H61c1.3-2.7,2-5.4,2-8c0-3.3-0.5-5.8-1.5-7.8
		c-1-1.9-2.4-3.3-4.3-4.2c-1.9-0.9-4-1.4-6.3-1.4c-1.4,0-2.7,0.5-3.8,1.5c-1.2,1.2-2.1,2.7-2.6,4.5c-0.5,1.8-1,3.6-1.3,5.3
		c-0.3,1.7-0.8,2.9-1.5,3.6c-1.4,1.5-2.8,3.3-4.5,5.3c-2.8,3.6-4.7,5.8-5.7,6.5H20.3c-1.5,0-2.7,0.5-3.8,1.6c-1,1-1.6,2.3-1.6,3.8
		v26.7c0,1.5,0.5,2.7,1.6,3.8c1,1,2.3,1.6,3.8,1.6h12c0.6,0,2.5,0.6,5.7,1.7c3.4,1.2,6.4,2.1,9,2.7c2.6,0.6,5.2,0.9,7.9,0.9h3.9h1.5
		c3.9,0,7.1-1.1,9.5-3.4c2.4-2.2,3.6-5.3,3.5-9.1c1.7-2.1,2.5-4.6,2.5-7.4c0-0.6,0-1.2-0.1-1.8c1.1-1.9,1.6-3.9,1.6-6
		C77.3,51.3,77.2,50.3,77,49.4z M24.9,68.5c-0.5,0.5-1.2,0.8-1.9,0.8c-0.7,0-1.3-0.3-1.9-0.8c-0.5-0.5-0.8-1.2-0.8-1.9
		c0-0.7,0.3-1.3,0.8-1.9c0.5-0.5,1.2-0.8,1.9-0.8c0.7,0,1.3,0.3,1.9,0.8c0.5,0.5,0.8,1.2,0.8,1.9C25.7,67.4,25.4,68,24.9,68.5z
		 M72.8,46c-0.6,1.3-1.3,1.9-2.2,2c0.4,0.5,0.8,1.1,1,2c0.3,0.8,0.4,1.6,0.4,2.3c0,1.9-0.7,3.6-2.2,5c0.5,0.9,0.8,1.8,0.8,2.9
		c0,1-0.2,2-0.7,3.1c-0.5,1-1.1,1.7-2,2.2C68,66.2,68,67,68,67.7c0,4.6-2.7,7-8,7h-5c-3.6,0-8.4-1-14.3-3c-0.1-0.1-0.5-0.2-1.2-0.4
		c-0.7-0.2-1.2-0.4-1.5-0.5c-0.3-0.1-0.8-0.3-1.5-0.5c-0.7-0.2-1.2-0.4-1.6-0.5c-0.4-0.1-0.9-0.2-1.4-0.3c-0.5-0.1-1-0.1-1.3-0.1H31
		V42.6h1.3c0.4,0,0.9-0.1,1.5-0.4c0.5-0.3,1.1-0.6,1.7-1.1c0.6-0.5,1.1-1,1.6-1.5c0.5-0.5,1.1-1.1,1.7-1.8c0.6-0.7,1.1-1.3,1.4-1.8
		c0.3-0.4,0.8-1,1.3-1.7c0.5-0.7,0.8-1.1,1-1.3c1.5-1.9,2.6-3.2,3.2-3.8c1.1-1.2,2-2.7,2.5-4.6c0.5-1.8,0.9-3.6,1.3-5.2
		c0.3-1.6,0.9-2.8,1.6-3.5c2.7,0,4.4,0.7,5.3,2c0.9,1.3,1.3,3.3,1.3,6c0,1.6-0.7,3.9-2,6.7c-1.3,2.8-2,5-2,6.6h14.7
		c1.4,0,2.6,0.5,3.7,1.6c1.1,1.1,1.6,2.3,1.6,3.7C73.7,43.6,73.4,44.7,72.8,46z"/>
</g>
</svg>
