<?xml version="1.0" encoding="utf-8"?>
<!-- Generator: Adobe Illustrator 19.2.1, SVG Export Plug-In . SVG Version: 6.00 Build 0)  -->
<svg version="1.1" id="Layer_3" xmlns="http://www.w3.org/2000/svg" xmlns:xlink="http://www.w3.org/1999/xlink" x="0px" y="0px"
	 viewBox="0 0 95 95" style="enable-background:new 0 0 95 95;" xml:space="preserve">
<g>
	<g>
		<path d="M83.8,19.7c-0.3-0.3-0.7-0.5-1.2-0.5H66.3l-3.7-8.8c-0.5-1.3-1.5-2.4-2.8-3.3c-1.4-0.9-2.8-1.4-4.2-1.4H38.8
			c-1.4,0-2.8,0.5-4.2,1.4c-1.4,0.9-2.3,2-2.8,3.3l-3.7,8.8H11.8c-0.5,0-0.9,0.2-1.2,0.5c-0.3,0.3-0.5,0.7-0.5,1.2v3.4
			c0,0.5,0.2,0.9,0.5,1.2c0.3,0.3,0.7,0.5,1.2,0.5h5.1v50.2c0,2.9,0.8,5.4,2.5,7.5c1.7,2.1,3.6,3.1,6,3.1h43.8c2.3,0,4.3-1.1,6-3.2
			c1.7-2.1,2.5-4.6,2.5-7.6V26h5.1c0.5,0,0.9-0.2,1.2-0.5c0.3-0.3,0.5-0.7,0.5-1.2v-3.4C84.3,20.4,84.1,20,83.8,19.7z M38,13.1
			c0.2-0.3,0.5-0.5,0.9-0.6h16.7c0.4,0.1,0.7,0.3,0.9,0.6l2.5,6.2H35.4L38,13.1z M70.8,75.9c0,0.8-0.1,1.5-0.4,2.1
			c-0.2,0.6-0.5,1.1-0.8,1.4c-0.3,0.3-0.4,0.4-0.6,0.4H25.3c-0.1,0-0.3-0.1-0.6-0.4c-0.3-0.3-0.5-0.8-0.8-1.4
			c-0.2-0.6-0.4-1.4-0.4-2.1V26h47.2L70.8,75.9L70.8,75.9z"/>
		<path d="M32,69.8h3.4c0.5,0,0.9-0.2,1.2-0.5c0.3-0.3,0.5-0.7,0.5-1.2V37.8c0-0.5-0.2-0.9-0.5-1.2c-0.3-0.3-0.7-0.5-1.2-0.5H32
			c-0.5,0-0.9,0.2-1.2,0.5c-0.3,0.3-0.5,0.7-0.5,1.2v30.3c0,0.5,0.2,0.9,0.5,1.2C31.1,69.6,31.5,69.8,32,69.8z"/>
		<path d="M45.5,69.8h3.4c0.5,0,0.9-0.2,1.2-0.5c0.3-0.3,0.5-0.7,0.5-1.2V37.8c0-0.5-0.2-0.9-0.5-1.2c-0.3-0.3-0.7-0.5-1.2-0.5h-3.4
			c-0.5,0-0.9,0.2-1.2,0.5c-0.3,0.3-0.5,0.7-0.5,1.2v30.3c0,0.5,0.2,0.9,0.5,1.2C44.6,69.6,45,69.8,45.5,69.8z"/>
		<path d="M59,69.8h3.4c0.5,0,0.9-0.2,1.2-0.5c0.3-0.3,0.5-0.7,0.5-1.2V37.8c0-0.5-0.2-0.9-0.5-1.2c-0.3-0.3-0.7-0.5-1.2-0.5H59
			c-0.5,0-0.9,0.2-1.2,0.5c-0.3,0.3-0.5,0.7-0.5,1.2v30.3c0,0.5,0.2,0.9,0.5,1.2C58.1,69.6,58.5,69.8,59,69.8z"/>
	</g>
</g>
</svg>
