<?xml version="1.0" encoding="utf-8"?>
<!-- Generator: Adobe Illustrator 19.2.1, SVG Export Plug-In . SVG Version: 6.00 Build 0)  -->
<svg version="1.1" id="Layer_3" xmlns="http://www.w3.org/2000/svg" xmlns:xlink="http://www.w3.org/1999/xlink" x="0px" y="0px"
	 viewBox="0 0 95 95" style="enable-background:new 0 0 95 95;" xml:space="preserve">
<g>
	<g>
		<path d="M64.6,53c2.4-3.4,3.5-7.2,3.5-11.4c0-1.2-0.1-2.4-0.4-3.8L55.2,60.4C59.1,58.9,62.2,56.4,64.6,53z"/>
		<path d="M66.4,22c0-0.1,0-0.2,0-0.4c0-0.5-0.2-0.9-0.7-1.2c-0.1-0.1-0.4-0.2-0.9-0.5c-0.5-0.3-1-0.6-1.4-0.8
			c-0.4-0.3-0.9-0.5-1.5-0.8c-0.5-0.3-1-0.5-1.4-0.7c-0.4-0.2-0.7-0.3-0.8-0.3c-0.5,0-1,0.2-1.3,0.7l-2.4,4.3
			c-2.7-0.5-5.4-0.8-8.1-0.8c-8,0-15.5,2-22.2,6.1c-6.8,4.1-12.5,9.6-17,16.6c-0.6,0.9-0.9,2-0.9,3.1c0,1.1,0.3,2.2,0.9,3.1
			c2.6,4.1,5.7,7.8,9.3,11c3.6,3.2,7.5,5.8,11.8,7.8c-1.3,2.2-2,3.5-2,3.9c0,0.5,0.2,1,0.7,1.3c3.6,2.1,5.6,3.1,6,3.1
			c0.5,0,1-0.2,1.3-0.7l2.2-4c3.2-5.6,7.9-14.1,14.2-25.4C58.6,36.1,63.3,27.6,66.4,22z M32.8,64.2c-7.8-3.5-14.2-9.1-19.1-16.8
			c4.5-7.1,10.2-12.3,17.1-15.8C28.9,34.7,28,38,28,41.6c0,3.2,0.7,6.2,2.2,9.1c1.5,2.9,3.5,5.2,6.1,7.1L32.8,64.2z M49.6,31.7
			c-0.4,0.4-0.9,0.6-1.5,0.6c-2.6,0-4.8,0.9-6.6,2.7c-1.8,1.8-2.7,4-2.7,6.6c0,0.6-0.2,1.1-0.6,1.5c-0.4,0.4-0.9,0.6-1.5,0.6
			c-0.6,0-1.1-0.2-1.5-0.6c-0.4-0.4-0.6-0.9-0.6-1.5c0-3.7,1.3-6.9,4-9.6c2.7-2.7,5.9-4,9.6-4c0.6,0,1.1,0.2,1.5,0.6
			c0.4,0.4,0.6,0.9,0.6,1.5C50.2,30.8,50,31.3,49.6,31.7z"/>
		<path d="M87.3,44.3c-1.7-2.8-3.9-5.6-6.5-8.2c-2.6-2.7-5.3-4.9-8.2-6.9l-2.8,5c5,3.4,9.2,7.8,12.6,13.2C78.9,53,74.4,57.6,69,61.1
			c-5.4,3.6-11.3,5.6-17.6,6.1l-3.3,5.9c6.6,0,12.9-1.4,18.8-4.3c5.9-2.8,11.1-6.8,15.6-12c2.1-2.4,3.7-4.6,4.9-6.5
			c0.6-1,0.9-2,0.9-3.1C88.2,46.3,87.9,45.3,87.3,44.3z"/>
	</g>
</g>
</svg>
