<?xml version="1.0" encoding="utf-8"?>
<!-- Generator: Adobe Illustrator 18.1.1, SVG Export Plug-In . SVG Version: 6.00 Build 0)  -->
<!DOCTYPE svg PUBLIC "-//W3C//DTD SVG 1.1//EN" "http://www.w3.org/Graphics/SVG/1.1/DTD/svg11.dtd">
<svg version="1.1" id="Layer_1" xmlns="http://www.w3.org/2000/svg" xmlns:xlink="http://www.w3.org/1999/xlink" x="0px" y="0px"
	 viewBox="0 0 1000 750" enable-background="new 0 0 1000 750" xml:space="preserve">
<g>
	<path fill="#010101" d="M630.4,345.5L442.6,237.1c-10.5-6.1-23.5-6.1-34,0s-17,17.3-17,29.5v216.9c0,12.2,6.5,23.4,17,29.5
		c5.3,3,11.1,4.6,17,4.6s11.8-1.5,17-4.6l187.8-108.4c10.5-6.1,17-17.3,17-29.5S640.9,351.6,630.4,345.5z"/>
	<path fill="#010101" d="M500,7C297.1,7,132,172.1,132,375s165.1,368,368,368s368-165.1,368-368S702.9,7,500,7z M500,665.2
		C340,665.2,209.8,535,209.8,375S340,84.8,500,84.8S790.2,215,790.2,375S660,665.2,500,665.2z"/>
</g>
</svg>
