<?xml version="1.0" encoding="utf-8"?>
<!-- Generator: Adobe Illustrator 17.0.0, SVG Export Plug-In . SVG Version: 6.00 Build 0)  -->
<!DOCTYPE svg PUBLIC "-//W3C//DTD SVG 1.1//EN" "http://www.w3.org/Graphics/SVG/1.1/DTD/svg11.dtd">
<svg version="1.1" id="Layer_1" xmlns="http://www.w3.org/2000/svg" xmlns:xlink="http://www.w3.org/1999/xlink" x="0px" y="0px"
	 width="1000px" height="750px" viewBox="0 0 1000 750" enable-background="new 0 0 1000 750" xml:space="preserve">
<g>
	<g>
		<polygon points="437.593,375 437.593,284.12 516.298,329.56 595.002,375 516.298,420.44 437.593,465.88 		"/>
		<path d="M437.596,494.408c-4.927,0-9.846-1.273-14.263-3.82c-8.827-5.098-14.263-14.514-14.263-24.705V284.118
			c0-10.192,5.436-19.607,14.263-24.705c8.819-5.094,19.707-5.098,28.526,0.004l157.409,90.878
			c8.827,5.098,14.263,14.514,14.263,24.705s-5.436,19.608-14.263,24.705l-157.409,90.878
			C447.449,493.135,442.523,494.408,437.596,494.408z M466.122,333.529v82.943L537.953,375L466.122,333.529z"/>
	</g>
	<g>
		<path d="M499.996,683.352c-170.025,0-308.348-138.327-308.348-308.352S329.971,66.648,499.996,66.648S808.352,204.975,808.352,375
			S670.021,683.352,499.996,683.352z M499.996,131.85C365.923,131.85,256.85,240.927,256.85,375s109.073,243.15,243.146,243.15
			S743.15,509.073,743.15,375S634.069,131.85,499.996,131.85z"/>
	</g>
</g>
</svg>
