<?xml version="1.0" encoding="utf-8"?>
<!-- Generator: Adobe Illustrator 17.0.2, SVG Export Plug-In . SVG Version: 6.00 Build 0)  -->
<!DOCTYPE svg PUBLIC "-//W3C//DTD SVG 1.1//EN" "http://www.w3.org/Graphics/SVG/1.1/DTD/svg11.dtd">
<svg version="1.1" id="Layer_1" xmlns="http://www.w3.org/2000/svg" xmlns:xlink="http://www.w3.org/1999/xlink" x="0px" y="0px"
	 width="1000px" height="750px" viewBox="0 0 1000 750" enable-background="new 0 0 1000 750" xml:space="preserve">
<g>
	<path d="M630.39,345.519L442.553,237.074c-10.524-6.088-23.516-6.083-34.04-0.005c-10.533,6.083-17.02,17.318-17.02,29.481v216.901
		c0,12.161,6.487,23.397,17.02,29.481c5.271,3.039,11.141,4.558,17.02,4.558s11.758-1.519,17.02-4.564L630.39,404.481
		c10.533-6.082,17.02-17.32,17.02-29.481S640.923,351.603,630.39,345.519z"/>
	<path d="M499.995,7.042C297.103,7.042,132.042,172.108,132.042,375s165.062,367.958,367.953,367.958S867.958,577.892,867.958,375
		S702.887,7.042,499.995,7.042z M499.995,665.152c-159.99,0-290.148-130.162-290.148-290.152S340.005,84.848,499.995,84.848
		S790.152,215.01,790.152,375S659.985,665.152,499.995,665.152z"/>
</g>
</svg>
